  0
SECTION
  2
BLOCKS
  0
ENDSEC
  0
SECTION
  2
ENTITIES
  0
LINE
  8
0
 10
214
 20
214
 11
0
 21
214
  0
LINE
  8
0
 10
0
 20
214
 11
0
 21
0
  0
LINE
  8
0
 10
0
 20
0
 11
214
 21
0
  0
LINE
  8
0
 10
214
 20
0
 11
214
 21
214
  0
LINE
  8
0
 10
211.3
 20
209.6
 11
211.193
 21
209.603
  0
LINE
  8
0
 10
211.193
 20
209.603
 11
211.087
 21
209.613
  0
LINE
  8
0
 10
211.087
 20
209.613
 11
210.981
 21
209.63
  0
LINE
  8
0
 10
210.981
 20
209.63
 11
210.877
 21
209.653
  0
LINE
  8
0
 10
210.877
 20
209.653
 11
210.775
 21
209.683
  0
LINE
  8
0
 10
210.775
 20
209.683
 11
210.674
 21
209.719
  0
LINE
  8
0
 10
210.674
 20
209.719
 11
210.576
 21
209.762
  0
LINE
  8
0
 10
210.576
 20
209.762
 11
210.481
 21
209.81
  0
LINE
  8
0
 10
210.481
 20
209.81
 11
210.389
 21
209.865
  0
LINE
  8
0
 10
210.389
 20
209.865
 11
210.301
 21
209.925
  0
LINE
  8
0
 10
210.301
 20
209.925
 11
210.216
 21
209.99
  0
LINE
  8
0
 10
210.216
 20
209.99
 11
210.136
 21
210.061
  0
LINE
  8
0
 10
210.136
 20
210.061
 11
210.061
 21
210.136
  0
LINE
  8
0
 10
210.061
 20
210.136
 11
209.99
 21
210.216
  0
LINE
  8
0
 10
209.99
 20
210.216
 11
209.925
 21
210.301
  0
LINE
  8
0
 10
209.925
 20
210.301
 11
209.865
 21
210.389
  0
LINE
  8
0
 10
209.865
 20
210.389
 11
209.81
 21
210.481
  0
LINE
  8
0
 10
209.81
 20
210.481
 11
209.762
 21
210.576
  0
LINE
  8
0
 10
209.762
 20
210.576
 11
209.719
 21
210.674
  0
LINE
  8
0
 10
209.719
 20
210.674
 11
209.683
 21
210.775
  0
LINE
  8
0
 10
209.683
 20
210.775
 11
209.653
 21
210.877
  0
LINE
  8
0
 10
209.653
 20
210.877
 11
209.63
 21
210.981
  0
LINE
  8
0
 10
209.63
 20
210.981
 11
209.613
 21
211.087
  0
LINE
  8
0
 10
209.613
 20
211.087
 11
209.603
 21
211.193
  0
LINE
  8
0
 10
209.603
 20
211.193
 11
209.6
 21
211.3
  0
LINE
  8
0
 10
209.6
 20
211.3
 11
209.603
 21
211.407
  0
LINE
  8
0
 10
209.603
 20
211.407
 11
209.613
 21
211.513
  0
LINE
  8
0
 10
209.613
 20
211.513
 11
209.63
 21
211.619
  0
LINE
  8
0
 10
209.63
 20
211.619
 11
209.653
 21
211.723
  0
LINE
  8
0
 10
209.653
 20
211.723
 11
209.683
 21
211.825
  0
LINE
  8
0
 10
209.683
 20
211.825
 11
209.719
 21
211.926
  0
LINE
  8
0
 10
209.719
 20
211.926
 11
209.762
 21
212.024
  0
LINE
  8
0
 10
209.762
 20
212.024
 11
209.81
 21
212.119
  0
LINE
  8
0
 10
209.81
 20
212.119
 11
209.865
 21
212.211
  0
LINE
  8
0
 10
209.865
 20
212.211
 11
209.925
 21
212.299
  0
LINE
  8
0
 10
209.925
 20
212.299
 11
209.99
 21
212.384
  0
LINE
  8
0
 10
209.99
 20
212.384
 11
210.061
 21
212.464
  0
LINE
  8
0
 10
210.061
 20
212.464
 11
210.136
 21
212.539
  0
LINE
  8
0
 10
210.136
 20
212.539
 11
210.216
 21
212.61
  0
LINE
  8
0
 10
210.216
 20
212.61
 11
210.301
 21
212.675
  0
LINE
  8
0
 10
210.301
 20
212.675
 11
210.389
 21
212.735
  0
LINE
  8
0
 10
210.389
 20
212.735
 11
210.481
 21
212.79
  0
LINE
  8
0
 10
210.481
 20
212.79
 11
210.576
 21
212.838
  0
LINE
  8
0
 10
210.576
 20
212.838
 11
210.674
 21
212.881
  0
LINE
  8
0
 10
210.674
 20
212.881
 11
210.775
 21
212.917
  0
LINE
  8
0
 10
210.775
 20
212.917
 11
210.877
 21
212.947
  0
LINE
  8
0
 10
210.877
 20
212.947
 11
210.981
 21
212.97
  0
LINE
  8
0
 10
210.981
 20
212.97
 11
211.087
 21
212.987
  0
LINE
  8
0
 10
211.087
 20
212.987
 11
211.193
 21
212.997
  0
LINE
  8
0
 10
211.193
 20
212.997
 11
211.3
 21
213
  0
LINE
  8
0
 10
211.3
 20
213
 11
211.407
 21
212.997
  0
LINE
  8
0
 10
211.407
 20
212.997
 11
211.513
 21
212.987
  0
LINE
  8
0
 10
211.513
 20
212.987
 11
211.619
 21
212.97
  0
LINE
  8
0
 10
211.619
 20
212.97
 11
211.723
 21
212.947
  0
LINE
  8
0
 10
211.723
 20
212.947
 11
211.825
 21
212.917
  0
LINE
  8
0
 10
211.825
 20
212.917
 11
211.926
 21
212.881
  0
LINE
  8
0
 10
211.926
 20
212.881
 11
212.024
 21
212.838
  0
LINE
  8
0
 10
212.024
 20
212.838
 11
212.119
 21
212.79
  0
LINE
  8
0
 10
212.119
 20
212.79
 11
212.211
 21
212.735
  0
LINE
  8
0
 10
212.211
 20
212.735
 11
212.299
 21
212.675
  0
LINE
  8
0
 10
212.299
 20
212.675
 11
212.384
 21
212.61
  0
LINE
  8
0
 10
212.384
 20
212.61
 11
212.464
 21
212.539
  0
LINE
  8
0
 10
212.464
 20
212.539
 11
212.539
 21
212.464
  0
LINE
  8
0
 10
212.539
 20
212.464
 11
212.61
 21
212.384
  0
LINE
  8
0
 10
212.61
 20
212.384
 11
212.675
 21
212.299
  0
LINE
  8
0
 10
212.675
 20
212.299
 11
212.735
 21
212.211
  0
LINE
  8
0
 10
212.735
 20
212.211
 11
212.79
 21
212.119
  0
LINE
  8
0
 10
212.79
 20
212.119
 11
212.838
 21
212.024
  0
LINE
  8
0
 10
212.838
 20
212.024
 11
212.881
 21
211.926
  0
LINE
  8
0
 10
212.881
 20
211.926
 11
212.917
 21
211.825
  0
LINE
  8
0
 10
212.917
 20
211.825
 11
212.947
 21
211.723
  0
LINE
  8
0
 10
212.947
 20
211.723
 11
212.97
 21
211.619
  0
LINE
  8
0
 10
212.97
 20
211.619
 11
212.987
 21
211.513
  0
LINE
  8
0
 10
212.987
 20
211.513
 11
212.997
 21
211.407
  0
LINE
  8
0
 10
212.997
 20
211.407
 11
213
 21
211.3
  0
LINE
  8
0
 10
213
 20
211.3
 11
212.997
 21
211.193
  0
LINE
  8
0
 10
212.997
 20
211.193
 11
212.987
 21
211.087
  0
LINE
  8
0
 10
212.987
 20
211.087
 11
212.97
 21
210.981
  0
LINE
  8
0
 10
212.97
 20
210.981
 11
212.947
 21
210.877
  0
LINE
  8
0
 10
212.947
 20
210.877
 11
212.917
 21
210.775
  0
LINE
  8
0
 10
212.917
 20
210.775
 11
212.881
 21
210.674
  0
LINE
  8
0
 10
212.881
 20
210.674
 11
212.838
 21
210.576
  0
LINE
  8
0
 10
212.838
 20
210.576
 11
212.79
 21
210.481
  0
LINE
  8
0
 10
212.79
 20
210.481
 11
212.735
 21
210.389
  0
LINE
  8
0
 10
212.735
 20
210.389
 11
212.675
 21
210.301
  0
LINE
  8
0
 10
212.675
 20
210.301
 11
212.61
 21
210.216
  0
LINE
  8
0
 10
212.61
 20
210.216
 11
212.539
 21
210.136
  0
LINE
  8
0
 10
212.539
 20
210.136
 11
212.464
 21
210.061
  0
LINE
  8
0
 10
212.464
 20
210.061
 11
212.384
 21
209.99
  0
LINE
  8
0
 10
212.384
 20
209.99
 11
212.299
 21
209.925
  0
LINE
  8
0
 10
212.299
 20
209.925
 11
212.211
 21
209.865
  0
LINE
  8
0
 10
212.211
 20
209.865
 11
212.119
 21
209.81
  0
LINE
  8
0
 10
212.119
 20
209.81
 11
212.024
 21
209.762
  0
LINE
  8
0
 10
212.024
 20
209.762
 11
211.926
 21
209.719
  0
LINE
  8
0
 10
211.926
 20
209.719
 11
211.825
 21
209.683
  0
LINE
  8
0
 10
211.825
 20
209.683
 11
211.723
 21
209.653
  0
LINE
  8
0
 10
211.723
 20
209.653
 11
211.619
 21
209.63
  0
LINE
  8
0
 10
211.619
 20
209.63
 11
211.513
 21
209.613
  0
LINE
  8
0
 10
211.513
 20
209.613
 11
211.407
 21
209.603
  0
LINE
  8
0
 10
211.407
 20
209.603
 11
211.3
 21
209.6
  0
LINE
  8
0
 10
2.7
 20
209.6
 11
2.59325
 21
209.603
  0
LINE
  8
0
 10
2.59325
 20
209.603
 11
2.48692
 21
209.613
  0
LINE
  8
0
 10
2.48692
 20
209.613
 11
2.38144
 21
209.63
  0
LINE
  8
0
 10
2.38144
 20
209.63
 11
2.27722
 21
209.653
  0
LINE
  8
0
 10
2.27722
 20
209.653
 11
2.17467
 21
209.683
  0
LINE
  8
0
 10
2.17467
 20
209.683
 11
2.07419
 21
209.719
  0
LINE
  8
0
 10
2.07419
 20
209.719
 11
1.97617
 21
209.762
  0
LINE
  8
0
 10
1.97617
 20
209.762
 11
1.88101
 21
209.81
  0
LINE
  8
0
 10
1.88101
 20
209.81
 11
1.78909
 21
209.865
  0
LINE
  8
0
 10
1.78909
 20
209.865
 11
1.70076
 21
209.925
  0
LINE
  8
0
 10
1.70076
 20
209.925
 11
1.61638
 21
209.99
  0
LINE
  8
0
 10
1.61638
 20
209.99
 11
1.53625
 21
210.061
  0
LINE
  8
0
 10
1.53625
 20
210.061
 11
1.46074
 21
210.136
  0
LINE
  8
0
 10
1.46074
 20
210.136
 11
1.39012
 21
210.216
  0
LINE
  8
0
 10
1.39012
 20
210.216
 11
1.32466
 21
210.301
  0
LINE
  8
0
 10
1.32466
 20
210.301
 11
1.26463
 21
210.389
  0
LINE
  8
0
 10
1.26463
 20
210.389
 11
1.21027
 21
210.481
  0
LINE
  8
0
 10
1.21027
 20
210.481
 11
1.16179
 21
210.576
  0
LINE
  8
0
 10
1.16179
 20
210.576
 11
1.11937
 21
210.674
  0
LINE
  8
0
 10
1.11937
 20
210.674
 11
1.08319
 21
210.775
  0
LINE
  8
0
 10
1.08319
 20
210.775
 11
1.05341
 21
210.877
  0
LINE
  8
0
 10
1.05341
 20
210.877
 11
1.03011
 21
210.981
  0
LINE
  8
0
 10
1.03011
 20
210.981
 11
1.0134
 21
211.087
  0
LINE
  8
0
 10
1.0134
 20
211.087
 11
1.00334
 21
211.193
  0
LINE
  8
0
 10
1.00334
 20
211.193
 11
1
 21
211.3
  0
LINE
  8
0
 10
1
 20
211.3
 11
1.00334
 21
211.407
  0
LINE
  8
0
 10
1.00334
 20
211.407
 11
1.0134
 21
211.513
  0
LINE
  8
0
 10
1.0134
 20
211.513
 11
1.03011
 21
211.619
  0
LINE
  8
0
 10
1.03011
 20
211.619
 11
1.05341
 21
211.723
  0
LINE
  8
0
 10
1.05341
 20
211.723
 11
1.08319
 21
211.825
  0
LINE
  8
0
 10
1.08319
 20
211.825
 11
1.11937
 21
211.926
  0
LINE
  8
0
 10
1.11937
 20
211.926
 11
1.16179
 21
212.024
  0
LINE
  8
0
 10
1.16179
 20
212.024
 11
1.21027
 21
212.119
  0
LINE
  8
0
 10
1.21027
 20
212.119
 11
1.26463
 21
212.211
  0
LINE
  8
0
 10
1.26463
 20
212.211
 11
1.32466
 21
212.299
  0
LINE
  8
0
 10
1.32466
 20
212.299
 11
1.39012
 21
212.384
  0
LINE
  8
0
 10
1.39012
 20
212.384
 11
1.46074
 21
212.464
  0
LINE
  8
0
 10
1.46074
 20
212.464
 11
1.53625
 21
212.539
  0
LINE
  8
0
 10
1.53625
 20
212.539
 11
1.61638
 21
212.61
  0
LINE
  8
0
 10
1.61638
 20
212.61
 11
1.70076
 21
212.675
  0
LINE
  8
0
 10
1.70076
 20
212.675
 11
1.78909
 21
212.735
  0
LINE
  8
0
 10
1.78909
 20
212.735
 11
1.88101
 21
212.79
  0
LINE
  8
0
 10
1.88101
 20
212.79
 11
1.97617
 21
212.838
  0
LINE
  8
0
 10
1.97617
 20
212.838
 11
2.07419
 21
212.881
  0
LINE
  8
0
 10
2.07419
 20
212.881
 11
2.17467
 21
212.917
  0
LINE
  8
0
 10
2.17467
 20
212.917
 11
2.27722
 21
212.947
  0
LINE
  8
0
 10
2.27722
 20
212.947
 11
2.38144
 21
212.97
  0
LINE
  8
0
 10
2.38144
 20
212.97
 11
2.48692
 21
212.987
  0
LINE
  8
0
 10
2.48692
 20
212.987
 11
2.59325
 21
212.997
  0
LINE
  8
0
 10
2.59325
 20
212.997
 11
2.7
 21
213
  0
LINE
  8
0
 10
2.7
 20
213
 11
2.80673
 21
212.997
  0
LINE
  8
0
 10
2.80673
 20
212.997
 11
2.91306
 21
212.987
  0
LINE
  8
0
 10
2.91306
 20
212.987
 11
3.01854
 21
212.97
  0
LINE
  8
0
 10
3.01854
 20
212.97
 11
3.12277
 21
212.947
  0
LINE
  8
0
 10
3.12277
 20
212.947
 11
3.22533
 21
212.917
  0
LINE
  8
0
 10
3.22533
 20
212.917
 11
3.32581
 21
212.881
  0
LINE
  8
0
 10
3.32581
 20
212.881
 11
3.42381
 21
212.838
  0
LINE
  8
0
 10
3.42381
 20
212.838
 11
3.51897
 21
212.79
  0
LINE
  8
0
 10
3.51897
 20
212.79
 11
3.6109
 21
212.735
  0
LINE
  8
0
 10
3.6109
 20
212.735
 11
3.69923
 21
212.675
  0
LINE
  8
0
 10
3.69923
 20
212.675
 11
3.78362
 21
212.61
  0
LINE
  8
0
 10
3.78362
 20
212.61
 11
3.86372
 21
212.539
  0
LINE
  8
0
 10
3.86372
 20
212.539
 11
3.93924
 21
212.464
  0
LINE
  8
0
 10
3.93924
 20
212.464
 11
4.00987
 21
212.384
  0
LINE
  8
0
 10
4.00987
 20
212.384
 11
4.07532
 21
212.299
  0
LINE
  8
0
 10
4.07532
 20
212.299
 11
4.13535
 21
212.211
  0
LINE
  8
0
 10
4.13535
 20
212.211
 11
4.18971
 21
212.119
  0
LINE
  8
0
 10
4.18971
 20
212.119
 11
4.2382
 21
212.024
  0
LINE
  8
0
 10
4.2382
 20
212.024
 11
4.28061
 21
211.926
  0
LINE
  8
0
 10
4.28061
 20
211.926
 11
4.31679
 21
211.825
  0
LINE
  8
0
 10
4.31679
 20
211.825
 11
4.34659
 21
211.723
  0
LINE
  8
0
 10
4.34659
 20
211.723
 11
4.36989
 21
211.619
  0
LINE
  8
0
 10
4.36989
 20
211.619
 11
4.38658
 21
211.513
  0
LINE
  8
0
 10
4.38658
 20
211.513
 11
4.39664
 21
211.407
  0
LINE
  8
0
 10
4.39664
 20
211.407
 11
4.39999
 21
211.3
  0
LINE
  8
0
 10
4.39999
 20
211.3
 11
4.39664
 21
211.193
  0
LINE
  8
0
 10
4.39664
 20
211.193
 11
4.38658
 21
211.087
  0
LINE
  8
0
 10
4.38658
 20
211.087
 11
4.36989
 21
210.981
  0
LINE
  8
0
 10
4.36989
 20
210.981
 11
4.34659
 21
210.877
  0
LINE
  8
0
 10
4.34659
 20
210.877
 11
4.31679
 21
210.775
  0
LINE
  8
0
 10
4.31679
 20
210.775
 11
4.28061
 21
210.674
  0
LINE
  8
0
 10
4.28061
 20
210.674
 11
4.2382
 21
210.576
  0
LINE
  8
0
 10
4.2382
 20
210.576
 11
4.18971
 21
210.481
  0
LINE
  8
0
 10
4.18971
 20
210.481
 11
4.13535
 21
210.389
  0
LINE
  8
0
 10
4.13535
 20
210.389
 11
4.07532
 21
210.301
  0
LINE
  8
0
 10
4.07532
 20
210.301
 11
4.00987
 21
210.216
  0
LINE
  8
0
 10
4.00987
 20
210.216
 11
3.93924
 21
210.136
  0
LINE
  8
0
 10
3.93924
 20
210.136
 11
3.86372
 21
210.061
  0
LINE
  8
0
 10
3.86372
 20
210.061
 11
3.78362
 21
209.99
  0
LINE
  8
0
 10
3.78362
 20
209.99
 11
3.69923
 21
209.925
  0
LINE
  8
0
 10
3.69923
 20
209.925
 11
3.6109
 21
209.865
  0
LINE
  8
0
 10
3.6109
 20
209.865
 11
3.51897
 21
209.81
  0
LINE
  8
0
 10
3.51897
 20
209.81
 11
3.42381
 21
209.762
  0
LINE
  8
0
 10
3.42381
 20
209.762
 11
3.32581
 21
209.719
  0
LINE
  8
0
 10
3.32581
 20
209.719
 11
3.22533
 21
209.683
  0
LINE
  8
0
 10
3.22533
 20
209.683
 11
3.12277
 21
209.653
  0
LINE
  8
0
 10
3.12277
 20
209.653
 11
3.01854
 21
209.63
  0
LINE
  8
0
 10
3.01854
 20
209.63
 11
2.91306
 21
209.613
  0
LINE
  8
0
 10
2.91306
 20
209.613
 11
2.80673
 21
209.603
  0
LINE
  8
0
 10
2.80673
 20
209.603
 11
2.7
 21
209.6
  0
LINE
  8
0
 10
142.667
 20
207.3
 11
142.56
 21
207.303
  0
LINE
  8
0
 10
142.56
 20
207.303
 11
142.454
 21
207.313
  0
LINE
  8
0
 10
142.454
 20
207.313
 11
142.348
 21
207.33
  0
LINE
  8
0
 10
142.348
 20
207.33
 11
142.244
 21
207.353
  0
LINE
  8
0
 10
142.244
 20
207.353
 11
142.141
 21
207.383
  0
LINE
  8
0
 10
142.141
 20
207.383
 11
142.041
 21
207.419
  0
LINE
  8
0
 10
142.041
 20
207.419
 11
141.943
 21
207.462
  0
LINE
  8
0
 10
141.943
 20
207.462
 11
141.848
 21
207.51
  0
LINE
  8
0
 10
141.848
 20
207.51
 11
141.756
 21
207.565
  0
LINE
  8
0
 10
141.756
 20
207.565
 11
141.667
 21
207.625
  0
LINE
  8
0
 10
141.667
 20
207.625
 11
141.583
 21
207.69
  0
LINE
  8
0
 10
141.583
 20
207.69
 11
141.503
 21
207.761
  0
LINE
  8
0
 10
141.503
 20
207.761
 11
141.427
 21
207.836
  0
LINE
  8
0
 10
141.427
 20
207.836
 11
141.357
 21
207.916
  0
LINE
  8
0
 10
141.357
 20
207.916
 11
141.291
 21
208.001
  0
LINE
  8
0
 10
141.291
 20
208.001
 11
141.231
 21
208.089
  0
LINE
  8
0
 10
141.231
 20
208.089
 11
141.177
 21
208.181
  0
LINE
  8
0
 10
141.177
 20
208.181
 11
141.128
 21
208.276
  0
LINE
  8
0
 10
141.128
 20
208.276
 11
141.086
 21
208.374
  0
LINE
  8
0
 10
141.086
 20
208.374
 11
141.05
 21
208.475
  0
LINE
  8
0
 10
141.05
 20
208.475
 11
141.02
 21
208.577
  0
LINE
  8
0
 10
141.02
 20
208.577
 11
140.997
 21
208.681
  0
LINE
  8
0
 10
140.997
 20
208.681
 11
140.98
 21
208.787
  0
LINE
  8
0
 10
140.98
 20
208.787
 11
140.97
 21
208.893
  0
LINE
  8
0
 10
140.97
 20
208.893
 11
140.967
 21
209
  0
LINE
  8
0
 10
140.967
 20
209
 11
140.97
 21
209.107
  0
LINE
  8
0
 10
140.97
 20
209.107
 11
140.98
 21
209.213
  0
LINE
  8
0
 10
140.98
 20
209.213
 11
140.997
 21
209.319
  0
LINE
  8
0
 10
140.997
 20
209.319
 11
141.02
 21
209.423
  0
LINE
  8
0
 10
141.02
 20
209.423
 11
141.05
 21
209.525
  0
LINE
  8
0
 10
141.05
 20
209.525
 11
141.086
 21
209.626
  0
LINE
  8
0
 10
141.086
 20
209.626
 11
141.128
 21
209.724
  0
LINE
  8
0
 10
141.128
 20
209.724
 11
141.177
 21
209.819
  0
LINE
  8
0
 10
141.177
 20
209.819
 11
141.231
 21
209.911
  0
LINE
  8
0
 10
141.231
 20
209.911
 11
141.291
 21
209.999
  0
LINE
  8
0
 10
141.291
 20
209.999
 11
141.357
 21
210.084
  0
LINE
  8
0
 10
141.357
 20
210.084
 11
141.427
 21
210.164
  0
LINE
  8
0
 10
141.427
 20
210.164
 11
141.503
 21
210.239
  0
LINE
  8
0
 10
141.503
 20
210.239
 11
141.583
 21
210.31
  0
LINE
  8
0
 10
141.583
 20
210.31
 11
141.667
 21
210.375
  0
LINE
  8
0
 10
141.667
 20
210.375
 11
141.756
 21
210.435
  0
LINE
  8
0
 10
141.756
 20
210.435
 11
141.848
 21
210.49
  0
LINE
  8
0
 10
141.848
 20
210.49
 11
141.943
 21
210.538
  0
LINE
  8
0
 10
141.943
 20
210.538
 11
142.041
 21
210.581
  0
LINE
  8
0
 10
142.041
 20
210.581
 11
142.141
 21
210.617
  0
LINE
  8
0
 10
142.141
 20
210.617
 11
142.244
 21
210.647
  0
LINE
  8
0
 10
142.244
 20
210.647
 11
142.348
 21
210.67
  0
LINE
  8
0
 10
142.348
 20
210.67
 11
142.454
 21
210.687
  0
LINE
  8
0
 10
142.454
 20
210.687
 11
142.56
 21
210.697
  0
LINE
  8
0
 10
142.56
 20
210.697
 11
142.667
 21
210.7
  0
LINE
  8
0
 10
142.667
 20
210.7
 11
142.773
 21
210.697
  0
LINE
  8
0
 10
142.773
 20
210.697
 11
142.88
 21
210.687
  0
LINE
  8
0
 10
142.88
 20
210.687
 11
142.985
 21
210.67
  0
LINE
  8
0
 10
142.985
 20
210.67
 11
143.089
 21
210.647
  0
LINE
  8
0
 10
143.089
 20
210.647
 11
143.192
 21
210.617
  0
LINE
  8
0
 10
143.192
 20
210.617
 11
143.292
 21
210.581
  0
LINE
  8
0
 10
143.292
 20
210.581
 11
143.39
 21
210.538
  0
LINE
  8
0
 10
143.39
 20
210.538
 11
143.486
 21
210.49
  0
LINE
  8
0
 10
143.486
 20
210.49
 11
143.578
 21
210.435
  0
LINE
  8
0
 10
143.578
 20
210.435
 11
143.666
 21
210.375
  0
LINE
  8
0
 10
143.666
 20
210.375
 11
143.75
 21
210.31
  0
LINE
  8
0
 10
143.75
 20
210.31
 11
143.83
 21
210.239
  0
LINE
  8
0
 10
143.83
 20
210.239
 11
143.906
 21
210.164
  0
LINE
  8
0
 10
143.906
 20
210.164
 11
143.977
 21
210.084
  0
LINE
  8
0
 10
143.977
 20
210.084
 11
144.042
 21
209.999
  0
LINE
  8
0
 10
144.042
 20
209.999
 11
144.102
 21
209.911
  0
LINE
  8
0
 10
144.102
 20
209.911
 11
144.156
 21
209.819
  0
LINE
  8
0
 10
144.156
 20
209.819
 11
144.205
 21
209.724
  0
LINE
  8
0
 10
144.205
 20
209.724
 11
144.247
 21
209.626
  0
LINE
  8
0
 10
144.247
 20
209.626
 11
144.283
 21
209.525
  0
LINE
  8
0
 10
144.283
 20
209.525
 11
144.313
 21
209.423
  0
LINE
  8
0
 10
144.313
 20
209.423
 11
144.337
 21
209.319
  0
LINE
  8
0
 10
144.337
 20
209.319
 11
144.353
 21
209.213
  0
LINE
  8
0
 10
144.353
 20
209.213
 11
144.363
 21
209.107
  0
LINE
  8
0
 10
144.363
 20
209.107
 11
144.367
 21
209
  0
LINE
  8
0
 10
144.367
 20
209
 11
144.363
 21
208.893
  0
LINE
  8
0
 10
144.363
 20
208.893
 11
144.353
 21
208.787
  0
LINE
  8
0
 10
144.353
 20
208.787
 11
144.337
 21
208.681
  0
LINE
  8
0
 10
144.337
 20
208.681
 11
144.313
 21
208.577
  0
LINE
  8
0
 10
144.313
 20
208.577
 11
144.283
 21
208.475
  0
LINE
  8
0
 10
144.283
 20
208.475
 11
144.247
 21
208.374
  0
LINE
  8
0
 10
144.247
 20
208.374
 11
144.205
 21
208.276
  0
LINE
  8
0
 10
144.205
 20
208.276
 11
144.156
 21
208.181
  0
LINE
  8
0
 10
144.156
 20
208.181
 11
144.102
 21
208.089
  0
LINE
  8
0
 10
144.102
 20
208.089
 11
144.042
 21
208.001
  0
LINE
  8
0
 10
144.042
 20
208.001
 11
143.977
 21
207.916
  0
LINE
  8
0
 10
143.977
 20
207.916
 11
143.906
 21
207.836
  0
LINE
  8
0
 10
143.906
 20
207.836
 11
143.83
 21
207.761
  0
LINE
  8
0
 10
143.83
 20
207.761
 11
143.75
 21
207.69
  0
LINE
  8
0
 10
143.75
 20
207.69
 11
143.666
 21
207.625
  0
LINE
  8
0
 10
143.666
 20
207.625
 11
143.578
 21
207.565
  0
LINE
  8
0
 10
143.578
 20
207.565
 11
143.486
 21
207.51
  0
LINE
  8
0
 10
143.486
 20
207.51
 11
143.39
 21
207.462
  0
LINE
  8
0
 10
143.39
 20
207.462
 11
143.292
 21
207.419
  0
LINE
  8
0
 10
143.292
 20
207.419
 11
143.192
 21
207.383
  0
LINE
  8
0
 10
143.192
 20
207.383
 11
143.089
 21
207.353
  0
LINE
  8
0
 10
143.089
 20
207.353
 11
142.985
 21
207.33
  0
LINE
  8
0
 10
142.985
 20
207.33
 11
142.88
 21
207.313
  0
LINE
  8
0
 10
142.88
 20
207.313
 11
142.773
 21
207.303
  0
LINE
  8
0
 10
142.773
 20
207.303
 11
142.667
 21
207.3
  0
LINE
  8
0
 10
71.3333
 20
207.3
 11
71.2266
 21
207.303
  0
LINE
  8
0
 10
71.2266
 20
207.303
 11
71.1203
 21
207.313
  0
LINE
  8
0
 10
71.1203
 20
207.313
 11
71.0148
 21
207.33
  0
LINE
  8
0
 10
71.0148
 20
207.33
 11
70.9106
 21
207.353
  0
LINE
  8
0
 10
70.9106
 20
207.353
 11
70.808
 21
207.383
  0
LINE
  8
0
 10
70.808
 20
207.383
 11
70.7075
 21
207.419
  0
LINE
  8
0
 10
70.7075
 20
207.419
 11
70.6095
 21
207.462
  0
LINE
  8
0
 10
70.6095
 20
207.462
 11
70.5143
 21
207.51
  0
LINE
  8
0
 10
70.5143
 20
207.51
 11
70.4224
 21
207.565
  0
LINE
  8
0
 10
70.4224
 20
207.565
 11
70.3341
 21
207.625
  0
LINE
  8
0
 10
70.3341
 20
207.625
 11
70.2497
 21
207.69
  0
LINE
  8
0
 10
70.2497
 20
207.69
 11
70.1696
 21
207.761
  0
LINE
  8
0
 10
70.1696
 20
207.761
 11
70.0941
 21
207.836
  0
LINE
  8
0
 10
70.0941
 20
207.836
 11
70.0235
 21
207.916
  0
LINE
  8
0
 10
70.0235
 20
207.916
 11
69.958
 21
208.001
  0
LINE
  8
0
 10
69.958
 20
208.001
 11
69.898
 21
208.089
  0
LINE
  8
0
 10
69.898
 20
208.089
 11
69.8436
 21
208.181
  0
LINE
  8
0
 10
69.8436
 20
208.181
 11
69.7951
 21
208.276
  0
LINE
  8
0
 10
69.7951
 20
208.276
 11
69.7527
 21
208.374
  0
LINE
  8
0
 10
69.7527
 20
208.374
 11
69.7165
 21
208.475
  0
LINE
  8
0
 10
69.7165
 20
208.475
 11
69.6867
 21
208.577
  0
LINE
  8
0
 10
69.6867
 20
208.577
 11
69.6634
 21
208.681
  0
LINE
  8
0
 10
69.6634
 20
208.681
 11
69.6467
 21
208.787
  0
LINE
  8
0
 10
69.6467
 20
208.787
 11
69.6367
 21
208.893
  0
LINE
  8
0
 10
69.6367
 20
208.893
 11
69.6333
 21
209
  0
LINE
  8
0
 10
69.6333
 20
209
 11
69.6367
 21
209.107
  0
LINE
  8
0
 10
69.6367
 20
209.107
 11
69.6467
 21
209.213
  0
LINE
  8
0
 10
69.6467
 20
209.213
 11
69.6634
 21
209.319
  0
LINE
  8
0
 10
69.6634
 20
209.319
 11
69.6867
 21
209.423
  0
LINE
  8
0
 10
69.6867
 20
209.423
 11
69.7165
 21
209.525
  0
LINE
  8
0
 10
69.7165
 20
209.525
 11
69.7527
 21
209.626
  0
LINE
  8
0
 10
69.7527
 20
209.626
 11
69.7951
 21
209.724
  0
LINE
  8
0
 10
69.7951
 20
209.724
 11
69.8436
 21
209.819
  0
LINE
  8
0
 10
69.8436
 20
209.819
 11
69.898
 21
209.911
  0
LINE
  8
0
 10
69.898
 20
209.911
 11
69.958
 21
209.999
  0
LINE
  8
0
 10
69.958
 20
209.999
 11
70.0235
 21
210.084
  0
LINE
  8
0
 10
70.0235
 20
210.084
 11
70.0941
 21
210.164
  0
LINE
  8
0
 10
70.0941
 20
210.164
 11
70.1696
 21
210.239
  0
LINE
  8
0
 10
70.1696
 20
210.239
 11
70.2497
 21
210.31
  0
LINE
  8
0
 10
70.2497
 20
210.31
 11
70.3341
 21
210.375
  0
LINE
  8
0
 10
70.3341
 20
210.375
 11
70.4224
 21
210.435
  0
LINE
  8
0
 10
70.4224
 20
210.435
 11
70.5143
 21
210.49
  0
LINE
  8
0
 10
70.5143
 20
210.49
 11
70.6095
 21
210.538
  0
LINE
  8
0
 10
70.6095
 20
210.538
 11
70.7075
 21
210.581
  0
LINE
  8
0
 10
70.7075
 20
210.581
 11
70.808
 21
210.617
  0
LINE
  8
0
 10
70.808
 20
210.617
 11
70.9106
 21
210.647
  0
LINE
  8
0
 10
70.9106
 20
210.647
 11
71.0148
 21
210.67
  0
LINE
  8
0
 10
71.0148
 20
210.67
 11
71.1203
 21
210.687
  0
LINE
  8
0
 10
71.1203
 20
210.687
 11
71.2266
 21
210.697
  0
LINE
  8
0
 10
71.2266
 20
210.697
 11
71.3333
 21
210.7
  0
LINE
  8
0
 10
71.3333
 20
210.7
 11
71.4401
 21
210.697
  0
LINE
  8
0
 10
71.4401
 20
210.697
 11
71.5464
 21
210.687
  0
LINE
  8
0
 10
71.5464
 20
210.687
 11
71.6519
 21
210.67
  0
LINE
  8
0
 10
71.6519
 20
210.67
 11
71.7561
 21
210.647
  0
LINE
  8
0
 10
71.7561
 20
210.647
 11
71.8587
 21
210.617
  0
LINE
  8
0
 10
71.8587
 20
210.617
 11
71.9591
 21
210.581
  0
LINE
  8
0
 10
71.9591
 20
210.581
 11
72.0571
 21
210.538
  0
LINE
  8
0
 10
72.0571
 20
210.538
 11
72.1523
 21
210.49
  0
LINE
  8
0
 10
72.1523
 20
210.49
 11
72.2442
 21
210.435
  0
LINE
  8
0
 10
72.2442
 20
210.435
 11
72.3326
 21
210.375
  0
LINE
  8
0
 10
72.3326
 20
210.375
 11
72.4169
 21
210.31
  0
LINE
  8
0
 10
72.4169
 20
210.31
 11
72.4971
 21
210.239
  0
LINE
  8
0
 10
72.4971
 20
210.239
 11
72.5726
 21
210.164
  0
LINE
  8
0
 10
72.5726
 20
210.164
 11
72.6432
 21
210.084
  0
LINE
  8
0
 10
72.6432
 20
210.084
 11
72.7086
 21
209.999
  0
LINE
  8
0
 10
72.7086
 20
209.999
 11
72.7687
 21
209.911
  0
LINE
  8
0
 10
72.7687
 20
209.911
 11
72.823
 21
209.819
  0
LINE
  8
0
 10
72.823
 20
209.819
 11
72.8715
 21
209.724
  0
LINE
  8
0
 10
72.8715
 20
209.724
 11
72.9139
 21
209.626
  0
LINE
  8
0
 10
72.9139
 20
209.626
 11
72.9501
 21
209.525
  0
LINE
  8
0
 10
72.9501
 20
209.525
 11
72.9799
 21
209.423
  0
LINE
  8
0
 10
72.9799
 20
209.423
 11
73.0032
 21
209.319
  0
LINE
  8
0
 10
73.0032
 20
209.319
 11
73.0199
 21
209.213
  0
LINE
  8
0
 10
73.0199
 20
209.213
 11
73.03
 21
209.107
  0
LINE
  8
0
 10
73.03
 20
209.107
 11
73.0333
 21
209
  0
LINE
  8
0
 10
73.0333
 20
209
 11
73.03
 21
208.893
  0
LINE
  8
0
 10
73.03
 20
208.893
 11
73.0199
 21
208.787
  0
LINE
  8
0
 10
73.0199
 20
208.787
 11
73.0032
 21
208.681
  0
LINE
  8
0
 10
73.0032
 20
208.681
 11
72.9799
 21
208.577
  0
LINE
  8
0
 10
72.9799
 20
208.577
 11
72.9501
 21
208.475
  0
LINE
  8
0
 10
72.9501
 20
208.475
 11
72.9139
 21
208.374
  0
LINE
  8
0
 10
72.9139
 20
208.374
 11
72.8715
 21
208.276
  0
LINE
  8
0
 10
72.8715
 20
208.276
 11
72.823
 21
208.181
  0
LINE
  8
0
 10
72.823
 20
208.181
 11
72.7687
 21
208.089
  0
LINE
  8
0
 10
72.7687
 20
208.089
 11
72.7086
 21
208.001
  0
LINE
  8
0
 10
72.7086
 20
208.001
 11
72.6432
 21
207.916
  0
LINE
  8
0
 10
72.6432
 20
207.916
 11
72.5726
 21
207.836
  0
LINE
  8
0
 10
72.5726
 20
207.836
 11
72.4971
 21
207.761
  0
LINE
  8
0
 10
72.4971
 20
207.761
 11
72.4169
 21
207.69
  0
LINE
  8
0
 10
72.4169
 20
207.69
 11
72.3326
 21
207.625
  0
LINE
  8
0
 10
72.3326
 20
207.625
 11
72.2442
 21
207.565
  0
LINE
  8
0
 10
72.2442
 20
207.565
 11
72.1523
 21
207.51
  0
LINE
  8
0
 10
72.1523
 20
207.51
 11
72.0571
 21
207.462
  0
LINE
  8
0
 10
72.0571
 20
207.462
 11
71.9591
 21
207.419
  0
LINE
  8
0
 10
71.9591
 20
207.419
 11
71.8587
 21
207.383
  0
LINE
  8
0
 10
71.8587
 20
207.383
 11
71.7561
 21
207.353
  0
LINE
  8
0
 10
71.7561
 20
207.353
 11
71.6519
 21
207.33
  0
LINE
  8
0
 10
71.6519
 20
207.33
 11
71.5464
 21
207.313
  0
LINE
  8
0
 10
71.5464
 20
207.313
 11
71.4401
 21
207.303
  0
LINE
  8
0
 10
71.4401
 20
207.303
 11
71.3333
 21
207.3
  0
LINE
  8
0
 10
142.667
 20
167.9
 11
142.56
 21
167.903
  0
LINE
  8
0
 10
142.56
 20
167.903
 11
142.454
 21
167.913
  0
LINE
  8
0
 10
142.454
 20
167.913
 11
142.348
 21
167.93
  0
LINE
  8
0
 10
142.348
 20
167.93
 11
142.244
 21
167.953
  0
LINE
  8
0
 10
142.244
 20
167.953
 11
142.141
 21
167.983
  0
LINE
  8
0
 10
142.141
 20
167.983
 11
142.041
 21
168.019
  0
LINE
  8
0
 10
142.041
 20
168.019
 11
141.943
 21
168.062
  0
LINE
  8
0
 10
141.943
 20
168.062
 11
141.848
 21
168.11
  0
LINE
  8
0
 10
141.848
 20
168.11
 11
141.756
 21
168.165
  0
LINE
  8
0
 10
141.756
 20
168.165
 11
141.667
 21
168.225
  0
LINE
  8
0
 10
141.667
 20
168.225
 11
141.583
 21
168.29
  0
LINE
  8
0
 10
141.583
 20
168.29
 11
141.503
 21
168.361
  0
LINE
  8
0
 10
141.503
 20
168.361
 11
141.427
 21
168.436
  0
LINE
  8
0
 10
141.427
 20
168.436
 11
141.357
 21
168.516
  0
LINE
  8
0
 10
141.357
 20
168.516
 11
141.291
 21
168.601
  0
LINE
  8
0
 10
141.291
 20
168.601
 11
141.231
 21
168.689
  0
LINE
  8
0
 10
141.231
 20
168.689
 11
141.177
 21
168.781
  0
LINE
  8
0
 10
141.177
 20
168.781
 11
141.128
 21
168.876
  0
LINE
  8
0
 10
141.128
 20
168.876
 11
141.086
 21
168.974
  0
LINE
  8
0
 10
141.086
 20
168.974
 11
141.05
 21
169.075
  0
LINE
  8
0
 10
141.05
 20
169.075
 11
141.02
 21
169.177
  0
LINE
  8
0
 10
141.02
 20
169.177
 11
140.997
 21
169.281
  0
LINE
  8
0
 10
140.997
 20
169.281
 11
140.98
 21
169.387
  0
LINE
  8
0
 10
140.98
 20
169.387
 11
140.97
 21
169.493
  0
LINE
  8
0
 10
140.97
 20
169.493
 11
140.967
 21
169.6
  0
LINE
  8
0
 10
140.967
 20
169.6
 11
140.97
 21
169.707
  0
LINE
  8
0
 10
140.97
 20
169.707
 11
140.98
 21
169.813
  0
LINE
  8
0
 10
140.98
 20
169.813
 11
140.997
 21
169.919
  0
LINE
  8
0
 10
140.997
 20
169.919
 11
141.02
 21
170.023
  0
LINE
  8
0
 10
141.02
 20
170.023
 11
141.05
 21
170.125
  0
LINE
  8
0
 10
141.05
 20
170.125
 11
141.086
 21
170.226
  0
LINE
  8
0
 10
141.086
 20
170.226
 11
141.128
 21
170.324
  0
LINE
  8
0
 10
141.128
 20
170.324
 11
141.177
 21
170.419
  0
LINE
  8
0
 10
141.177
 20
170.419
 11
141.231
 21
170.511
  0
LINE
  8
0
 10
141.231
 20
170.511
 11
141.291
 21
170.599
  0
LINE
  8
0
 10
141.291
 20
170.599
 11
141.357
 21
170.684
  0
LINE
  8
0
 10
141.357
 20
170.684
 11
141.427
 21
170.764
  0
LINE
  8
0
 10
141.427
 20
170.764
 11
141.503
 21
170.839
  0
LINE
  8
0
 10
141.503
 20
170.839
 11
141.583
 21
170.91
  0
LINE
  8
0
 10
141.583
 20
170.91
 11
141.667
 21
170.975
  0
LINE
  8
0
 10
141.667
 20
170.975
 11
141.756
 21
171.035
  0
LINE
  8
0
 10
141.756
 20
171.035
 11
141.848
 21
171.09
  0
LINE
  8
0
 10
141.848
 20
171.09
 11
141.943
 21
171.138
  0
LINE
  8
0
 10
141.943
 20
171.138
 11
142.041
 21
171.181
  0
LINE
  8
0
 10
142.041
 20
171.181
 11
142.141
 21
171.217
  0
LINE
  8
0
 10
142.141
 20
171.217
 11
142.244
 21
171.247
  0
LINE
  8
0
 10
142.244
 20
171.247
 11
142.348
 21
171.27
  0
LINE
  8
0
 10
142.348
 20
171.27
 11
142.454
 21
171.287
  0
LINE
  8
0
 10
142.454
 20
171.287
 11
142.56
 21
171.297
  0
LINE
  8
0
 10
142.56
 20
171.297
 11
142.667
 21
171.3
  0
LINE
  8
0
 10
142.667
 20
171.3
 11
142.773
 21
171.297
  0
LINE
  8
0
 10
142.773
 20
171.297
 11
142.88
 21
171.287
  0
LINE
  8
0
 10
142.88
 20
171.287
 11
142.985
 21
171.27
  0
LINE
  8
0
 10
142.985
 20
171.27
 11
143.089
 21
171.247
  0
LINE
  8
0
 10
143.089
 20
171.247
 11
143.192
 21
171.217
  0
LINE
  8
0
 10
143.192
 20
171.217
 11
143.292
 21
171.181
  0
LINE
  8
0
 10
143.292
 20
171.181
 11
143.39
 21
171.138
  0
LINE
  8
0
 10
143.39
 20
171.138
 11
143.486
 21
171.09
  0
LINE
  8
0
 10
143.486
 20
171.09
 11
143.578
 21
171.035
  0
LINE
  8
0
 10
143.578
 20
171.035
 11
143.666
 21
170.975
  0
LINE
  8
0
 10
143.666
 20
170.975
 11
143.75
 21
170.91
  0
LINE
  8
0
 10
143.75
 20
170.91
 11
143.83
 21
170.839
  0
LINE
  8
0
 10
143.83
 20
170.839
 11
143.906
 21
170.764
  0
LINE
  8
0
 10
143.906
 20
170.764
 11
143.977
 21
170.684
  0
LINE
  8
0
 10
143.977
 20
170.684
 11
144.042
 21
170.599
  0
LINE
  8
0
 10
144.042
 20
170.599
 11
144.102
 21
170.511
  0
LINE
  8
0
 10
144.102
 20
170.511
 11
144.156
 21
170.419
  0
LINE
  8
0
 10
144.156
 20
170.419
 11
144.205
 21
170.324
  0
LINE
  8
0
 10
144.205
 20
170.324
 11
144.247
 21
170.226
  0
LINE
  8
0
 10
144.247
 20
170.226
 11
144.283
 21
170.125
  0
LINE
  8
0
 10
144.283
 20
170.125
 11
144.313
 21
170.023
  0
LINE
  8
0
 10
144.313
 20
170.023
 11
144.337
 21
169.919
  0
LINE
  8
0
 10
144.337
 20
169.919
 11
144.353
 21
169.813
  0
LINE
  8
0
 10
144.353
 20
169.813
 11
144.363
 21
169.707
  0
LINE
  8
0
 10
144.363
 20
169.707
 11
144.367
 21
169.6
  0
LINE
  8
0
 10
144.367
 20
169.6
 11
144.363
 21
169.493
  0
LINE
  8
0
 10
144.363
 20
169.493
 11
144.353
 21
169.387
  0
LINE
  8
0
 10
144.353
 20
169.387
 11
144.337
 21
169.281
  0
LINE
  8
0
 10
144.337
 20
169.281
 11
144.313
 21
169.177
  0
LINE
  8
0
 10
144.313
 20
169.177
 11
144.283
 21
169.075
  0
LINE
  8
0
 10
144.283
 20
169.075
 11
144.247
 21
168.974
  0
LINE
  8
0
 10
144.247
 20
168.974
 11
144.205
 21
168.876
  0
LINE
  8
0
 10
144.205
 20
168.876
 11
144.156
 21
168.781
  0
LINE
  8
0
 10
144.156
 20
168.781
 11
144.102
 21
168.689
  0
LINE
  8
0
 10
144.102
 20
168.689
 11
144.042
 21
168.601
  0
LINE
  8
0
 10
144.042
 20
168.601
 11
143.977
 21
168.516
  0
LINE
  8
0
 10
143.977
 20
168.516
 11
143.906
 21
168.436
  0
LINE
  8
0
 10
143.906
 20
168.436
 11
143.83
 21
168.361
  0
LINE
  8
0
 10
143.83
 20
168.361
 11
143.75
 21
168.29
  0
LINE
  8
0
 10
143.75
 20
168.29
 11
143.666
 21
168.225
  0
LINE
  8
0
 10
143.666
 20
168.225
 11
143.578
 21
168.165
  0
LINE
  8
0
 10
143.578
 20
168.165
 11
143.486
 21
168.11
  0
LINE
  8
0
 10
143.486
 20
168.11
 11
143.39
 21
168.062
  0
LINE
  8
0
 10
143.39
 20
168.062
 11
143.292
 21
168.019
  0
LINE
  8
0
 10
143.292
 20
168.019
 11
143.192
 21
167.983
  0
LINE
  8
0
 10
143.192
 20
167.983
 11
143.089
 21
167.953
  0
LINE
  8
0
 10
143.089
 20
167.953
 11
142.985
 21
167.93
  0
LINE
  8
0
 10
142.985
 20
167.93
 11
142.88
 21
167.913
  0
LINE
  8
0
 10
142.88
 20
167.913
 11
142.773
 21
167.903
  0
LINE
  8
0
 10
142.773
 20
167.903
 11
142.667
 21
167.9
  0
LINE
  8
0
 10
71.3333
 20
167.9
 11
71.2266
 21
167.903
  0
LINE
  8
0
 10
71.2266
 20
167.903
 11
71.1203
 21
167.913
  0
LINE
  8
0
 10
71.1203
 20
167.913
 11
71.0148
 21
167.93
  0
LINE
  8
0
 10
71.0148
 20
167.93
 11
70.9106
 21
167.953
  0
LINE
  8
0
 10
70.9106
 20
167.953
 11
70.808
 21
167.983
  0
LINE
  8
0
 10
70.808
 20
167.983
 11
70.7075
 21
168.019
  0
LINE
  8
0
 10
70.7075
 20
168.019
 11
70.6095
 21
168.062
  0
LINE
  8
0
 10
70.6095
 20
168.062
 11
70.5143
 21
168.11
  0
LINE
  8
0
 10
70.5143
 20
168.11
 11
70.4224
 21
168.165
  0
LINE
  8
0
 10
70.4224
 20
168.165
 11
70.3341
 21
168.225
  0
LINE
  8
0
 10
70.3341
 20
168.225
 11
70.2497
 21
168.29
  0
LINE
  8
0
 10
70.2497
 20
168.29
 11
70.1696
 21
168.361
  0
LINE
  8
0
 10
70.1696
 20
168.361
 11
70.0941
 21
168.436
  0
LINE
  8
0
 10
70.0941
 20
168.436
 11
70.0235
 21
168.516
  0
LINE
  8
0
 10
70.0235
 20
168.516
 11
69.958
 21
168.601
  0
LINE
  8
0
 10
69.958
 20
168.601
 11
69.898
 21
168.689
  0
LINE
  8
0
 10
69.898
 20
168.689
 11
69.8436
 21
168.781
  0
LINE
  8
0
 10
69.8436
 20
168.781
 11
69.7951
 21
168.876
  0
LINE
  8
0
 10
69.7951
 20
168.876
 11
69.7527
 21
168.974
  0
LINE
  8
0
 10
69.7527
 20
168.974
 11
69.7165
 21
169.075
  0
LINE
  8
0
 10
69.7165
 20
169.075
 11
69.6867
 21
169.177
  0
LINE
  8
0
 10
69.6867
 20
169.177
 11
69.6634
 21
169.281
  0
LINE
  8
0
 10
69.6634
 20
169.281
 11
69.6467
 21
169.387
  0
LINE
  8
0
 10
69.6467
 20
169.387
 11
69.6367
 21
169.493
  0
LINE
  8
0
 10
69.6367
 20
169.493
 11
69.6333
 21
169.6
  0
LINE
  8
0
 10
69.6333
 20
169.6
 11
69.6367
 21
169.707
  0
LINE
  8
0
 10
69.6367
 20
169.707
 11
69.6467
 21
169.813
  0
LINE
  8
0
 10
69.6467
 20
169.813
 11
69.6634
 21
169.919
  0
LINE
  8
0
 10
69.6634
 20
169.919
 11
69.6867
 21
170.023
  0
LINE
  8
0
 10
69.6867
 20
170.023
 11
69.7165
 21
170.125
  0
LINE
  8
0
 10
69.7165
 20
170.125
 11
69.7527
 21
170.226
  0
LINE
  8
0
 10
69.7527
 20
170.226
 11
69.7951
 21
170.324
  0
LINE
  8
0
 10
69.7951
 20
170.324
 11
69.8436
 21
170.419
  0
LINE
  8
0
 10
69.8436
 20
170.419
 11
69.898
 21
170.511
  0
LINE
  8
0
 10
69.898
 20
170.511
 11
69.958
 21
170.599
  0
LINE
  8
0
 10
69.958
 20
170.599
 11
70.0235
 21
170.684
  0
LINE
  8
0
 10
70.0235
 20
170.684
 11
70.0941
 21
170.764
  0
LINE
  8
0
 10
70.0941
 20
170.764
 11
70.1696
 21
170.839
  0
LINE
  8
0
 10
70.1696
 20
170.839
 11
70.2497
 21
170.91
  0
LINE
  8
0
 10
70.2497
 20
170.91
 11
70.3341
 21
170.975
  0
LINE
  8
0
 10
70.3341
 20
170.975
 11
70.4224
 21
171.035
  0
LINE
  8
0
 10
70.4224
 20
171.035
 11
70.5143
 21
171.09
  0
LINE
  8
0
 10
70.5143
 20
171.09
 11
70.6095
 21
171.138
  0
LINE
  8
0
 10
70.6095
 20
171.138
 11
70.7075
 21
171.181
  0
LINE
  8
0
 10
70.7075
 20
171.181
 11
70.808
 21
171.217
  0
LINE
  8
0
 10
70.808
 20
171.217
 11
70.9106
 21
171.247
  0
LINE
  8
0
 10
70.9106
 20
171.247
 11
71.0148
 21
171.27
  0
LINE
  8
0
 10
71.0148
 20
171.27
 11
71.1203
 21
171.287
  0
LINE
  8
0
 10
71.1203
 20
171.287
 11
71.2266
 21
171.297
  0
LINE
  8
0
 10
71.2266
 20
171.297
 11
71.3333
 21
171.3
  0
LINE
  8
0
 10
71.3333
 20
171.3
 11
71.4401
 21
171.297
  0
LINE
  8
0
 10
71.4401
 20
171.297
 11
71.5464
 21
171.287
  0
LINE
  8
0
 10
71.5464
 20
171.287
 11
71.6519
 21
171.27
  0
LINE
  8
0
 10
71.6519
 20
171.27
 11
71.7561
 21
171.247
  0
LINE
  8
0
 10
71.7561
 20
171.247
 11
71.8587
 21
171.217
  0
LINE
  8
0
 10
71.8587
 20
171.217
 11
71.9591
 21
171.181
  0
LINE
  8
0
 10
71.9591
 20
171.181
 11
72.0571
 21
171.138
  0
LINE
  8
0
 10
72.0571
 20
171.138
 11
72.1523
 21
171.09
  0
LINE
  8
0
 10
72.1523
 20
171.09
 11
72.2442
 21
171.035
  0
LINE
  8
0
 10
72.2442
 20
171.035
 11
72.3326
 21
170.975
  0
LINE
  8
0
 10
72.3326
 20
170.975
 11
72.4169
 21
170.91
  0
LINE
  8
0
 10
72.4169
 20
170.91
 11
72.4971
 21
170.839
  0
LINE
  8
0
 10
72.4971
 20
170.839
 11
72.5726
 21
170.764
  0
LINE
  8
0
 10
72.5726
 20
170.764
 11
72.6432
 21
170.684
  0
LINE
  8
0
 10
72.6432
 20
170.684
 11
72.7086
 21
170.599
  0
LINE
  8
0
 10
72.7086
 20
170.599
 11
72.7687
 21
170.511
  0
LINE
  8
0
 10
72.7687
 20
170.511
 11
72.823
 21
170.419
  0
LINE
  8
0
 10
72.823
 20
170.419
 11
72.8715
 21
170.324
  0
LINE
  8
0
 10
72.8715
 20
170.324
 11
72.9139
 21
170.226
  0
LINE
  8
0
 10
72.9139
 20
170.226
 11
72.9501
 21
170.125
  0
LINE
  8
0
 10
72.9501
 20
170.125
 11
72.9799
 21
170.023
  0
LINE
  8
0
 10
72.9799
 20
170.023
 11
73.0032
 21
169.919
  0
LINE
  8
0
 10
73.0032
 20
169.919
 11
73.0199
 21
169.813
  0
LINE
  8
0
 10
73.0199
 20
169.813
 11
73.03
 21
169.707
  0
LINE
  8
0
 10
73.03
 20
169.707
 11
73.0333
 21
169.6
  0
LINE
  8
0
 10
73.0333
 20
169.6
 11
73.03
 21
169.493
  0
LINE
  8
0
 10
73.03
 20
169.493
 11
73.0199
 21
169.387
  0
LINE
  8
0
 10
73.0199
 20
169.387
 11
73.0032
 21
169.281
  0
LINE
  8
0
 10
73.0032
 20
169.281
 11
72.9799
 21
169.177
  0
LINE
  8
0
 10
72.9799
 20
169.177
 11
72.9501
 21
169.075
  0
LINE
  8
0
 10
72.9501
 20
169.075
 11
72.9139
 21
168.974
  0
LINE
  8
0
 10
72.9139
 20
168.974
 11
72.8715
 21
168.876
  0
LINE
  8
0
 10
72.8715
 20
168.876
 11
72.823
 21
168.781
  0
LINE
  8
0
 10
72.823
 20
168.781
 11
72.7687
 21
168.689
  0
LINE
  8
0
 10
72.7687
 20
168.689
 11
72.7086
 21
168.601
  0
LINE
  8
0
 10
72.7086
 20
168.601
 11
72.6432
 21
168.516
  0
LINE
  8
0
 10
72.6432
 20
168.516
 11
72.5726
 21
168.436
  0
LINE
  8
0
 10
72.5726
 20
168.436
 11
72.4971
 21
168.361
  0
LINE
  8
0
 10
72.4971
 20
168.361
 11
72.4169
 21
168.29
  0
LINE
  8
0
 10
72.4169
 20
168.29
 11
72.3326
 21
168.225
  0
LINE
  8
0
 10
72.3326
 20
168.225
 11
72.2442
 21
168.165
  0
LINE
  8
0
 10
72.2442
 20
168.165
 11
72.1523
 21
168.11
  0
LINE
  8
0
 10
72.1523
 20
168.11
 11
72.0571
 21
168.062
  0
LINE
  8
0
 10
72.0571
 20
168.062
 11
71.9591
 21
168.019
  0
LINE
  8
0
 10
71.9591
 20
168.019
 11
71.8587
 21
167.983
  0
LINE
  8
0
 10
71.8587
 20
167.983
 11
71.7561
 21
167.953
  0
LINE
  8
0
 10
71.7561
 20
167.953
 11
71.6519
 21
167.93
  0
LINE
  8
0
 10
71.6519
 20
167.93
 11
71.5464
 21
167.913
  0
LINE
  8
0
 10
71.5464
 20
167.913
 11
71.4401
 21
167.903
  0
LINE
  8
0
 10
71.4401
 20
167.903
 11
71.3333
 21
167.9
  0
LINE
  8
0
 10
87.3
 20
140.967
 11
87.1933
 21
140.97
  0
LINE
  8
0
 10
87.1933
 20
140.97
 11
87.0869
 21
140.98
  0
LINE
  8
0
 10
87.0869
 20
140.98
 11
86.9814
 21
140.997
  0
LINE
  8
0
 10
86.9814
 20
140.997
 11
86.8772
 21
141.02
  0
LINE
  8
0
 10
86.8772
 20
141.02
 11
86.7747
 21
141.05
  0
LINE
  8
0
 10
86.7747
 20
141.05
 11
86.6742
 21
141.086
  0
LINE
  8
0
 10
86.6742
 20
141.086
 11
86.5762
 21
141.128
  0
LINE
  8
0
 10
86.5762
 20
141.128
 11
86.481
 21
141.177
  0
LINE
  8
0
 10
86.481
 20
141.177
 11
86.3891
 21
141.231
  0
LINE
  8
0
 10
86.3891
 20
141.231
 11
86.3008
 21
141.291
  0
LINE
  8
0
 10
86.3008
 20
141.291
 11
86.2164
 21
141.357
  0
LINE
  8
0
 10
86.2164
 20
141.357
 11
86.1363
 21
141.427
  0
LINE
  8
0
 10
86.1363
 20
141.427
 11
86.0607
 21
141.503
  0
LINE
  8
0
 10
86.0607
 20
141.503
 11
85.9901
 21
141.583
  0
LINE
  8
0
 10
85.9901
 20
141.583
 11
85.9247
 21
141.667
  0
LINE
  8
0
 10
85.9247
 20
141.667
 11
85.8646
 21
141.756
  0
LINE
  8
0
 10
85.8646
 20
141.756
 11
85.8103
 21
141.848
  0
LINE
  8
0
 10
85.8103
 20
141.848
 11
85.7618
 21
141.943
  0
LINE
  8
0
 10
85.7618
 20
141.943
 11
85.7194
 21
142.041
  0
LINE
  8
0
 10
85.7194
 20
142.041
 11
85.6832
 21
142.141
  0
LINE
  8
0
 10
85.6832
 20
142.141
 11
85.6534
 21
142.244
  0
LINE
  8
0
 10
85.6534
 20
142.244
 11
85.6301
 21
142.348
  0
LINE
  8
0
 10
85.6301
 20
142.348
 11
85.6134
 21
142.454
  0
LINE
  8
0
 10
85.6134
 20
142.454
 11
85.6033
 21
142.56
  0
LINE
  8
0
 10
85.6033
 20
142.56
 11
85.6
 21
142.667
  0
LINE
  8
0
 10
85.6
 20
142.667
 11
85.6033
 21
142.773
  0
LINE
  8
0
 10
85.6033
 20
142.773
 11
85.6134
 21
142.88
  0
LINE
  8
0
 10
85.6134
 20
142.88
 11
85.6301
 21
142.985
  0
LINE
  8
0
 10
85.6301
 20
142.985
 11
85.6534
 21
143.089
  0
LINE
  8
0
 10
85.6534
 20
143.089
 11
85.6832
 21
143.192
  0
LINE
  8
0
 10
85.6832
 20
143.192
 11
85.7194
 21
143.292
  0
LINE
  8
0
 10
85.7194
 20
143.292
 11
85.7618
 21
143.39
  0
LINE
  8
0
 10
85.7618
 20
143.39
 11
85.8103
 21
143.486
  0
LINE
  8
0
 10
85.8103
 20
143.486
 11
85.8646
 21
143.578
  0
LINE
  8
0
 10
85.8646
 20
143.578
 11
85.9247
 21
143.666
  0
LINE
  8
0
 10
85.9247
 20
143.666
 11
85.9901
 21
143.75
  0
LINE
  8
0
 10
85.9901
 20
143.75
 11
86.0607
 21
143.83
  0
LINE
  8
0
 10
86.0607
 20
143.83
 11
86.1363
 21
143.906
  0
LINE
  8
0
 10
86.1363
 20
143.906
 11
86.2164
 21
143.977
  0
LINE
  8
0
 10
86.2164
 20
143.977
 11
86.3008
 21
144.042
  0
LINE
  8
0
 10
86.3008
 20
144.042
 11
86.3891
 21
144.102
  0
LINE
  8
0
 10
86.3891
 20
144.102
 11
86.481
 21
144.156
  0
LINE
  8
0
 10
86.481
 20
144.156
 11
86.5762
 21
144.205
  0
LINE
  8
0
 10
86.5762
 20
144.205
 11
86.6742
 21
144.247
  0
LINE
  8
0
 10
86.6742
 20
144.247
 11
86.7747
 21
144.283
  0
LINE
  8
0
 10
86.7747
 20
144.283
 11
86.8772
 21
144.313
  0
LINE
  8
0
 10
86.8772
 20
144.313
 11
86.9814
 21
144.337
  0
LINE
  8
0
 10
86.9814
 20
144.337
 11
87.0869
 21
144.353
  0
LINE
  8
0
 10
87.0869
 20
144.353
 11
87.1933
 21
144.363
  0
LINE
  8
0
 10
87.1933
 20
144.363
 11
87.3
 21
144.367
  0
LINE
  8
0
 10
87.3
 20
144.367
 11
87.4067
 21
144.363
  0
LINE
  8
0
 10
87.4067
 20
144.363
 11
87.5131
 21
144.353
  0
LINE
  8
0
 10
87.5131
 20
144.353
 11
87.6185
 21
144.337
  0
LINE
  8
0
 10
87.6185
 20
144.337
 11
87.7228
 21
144.313
  0
LINE
  8
0
 10
87.7228
 20
144.313
 11
87.8253
 21
144.283
  0
LINE
  8
0
 10
87.8253
 20
144.283
 11
87.9258
 21
144.247
  0
LINE
  8
0
 10
87.9258
 20
144.247
 11
88.0238
 21
144.205
  0
LINE
  8
0
 10
88.0238
 20
144.205
 11
88.119
 21
144.156
  0
LINE
  8
0
 10
88.119
 20
144.156
 11
88.2109
 21
144.102
  0
LINE
  8
0
 10
88.2109
 20
144.102
 11
88.2992
 21
144.042
  0
LINE
  8
0
 10
88.2992
 20
144.042
 11
88.3836
 21
143.977
  0
LINE
  8
0
 10
88.3836
 20
143.977
 11
88.4637
 21
143.906
  0
LINE
  8
0
 10
88.4637
 20
143.906
 11
88.5392
 21
143.83
  0
LINE
  8
0
 10
88.5392
 20
143.83
 11
88.6099
 21
143.75
  0
LINE
  8
0
 10
88.6099
 20
143.75
 11
88.6753
 21
143.666
  0
LINE
  8
0
 10
88.6753
 20
143.666
 11
88.7354
 21
143.578
  0
LINE
  8
0
 10
88.7354
 20
143.578
 11
88.7897
 21
143.486
  0
LINE
  8
0
 10
88.7897
 20
143.486
 11
88.8382
 21
143.39
  0
LINE
  8
0
 10
88.8382
 20
143.39
 11
88.8806
 21
143.292
  0
LINE
  8
0
 10
88.8806
 20
143.292
 11
88.9168
 21
143.192
  0
LINE
  8
0
 10
88.9168
 20
143.192
 11
88.9466
 21
143.089
  0
LINE
  8
0
 10
88.9466
 20
143.089
 11
88.9699
 21
142.985
  0
LINE
  8
0
 10
88.9699
 20
142.985
 11
88.9866
 21
142.88
  0
LINE
  8
0
 10
88.9866
 20
142.88
 11
88.9966
 21
142.773
  0
LINE
  8
0
 10
88.9966
 20
142.773
 11
89
 21
142.667
  0
LINE
  8
0
 10
89
 20
142.667
 11
88.9966
 21
142.56
  0
LINE
  8
0
 10
88.9966
 20
142.56
 11
88.9866
 21
142.454
  0
LINE
  8
0
 10
88.9866
 20
142.454
 11
88.9699
 21
142.348
  0
LINE
  8
0
 10
88.9699
 20
142.348
 11
88.9466
 21
142.244
  0
LINE
  8
0
 10
88.9466
 20
142.244
 11
88.9168
 21
142.141
  0
LINE
  8
0
 10
88.9168
 20
142.141
 11
88.8806
 21
142.041
  0
LINE
  8
0
 10
88.8806
 20
142.041
 11
88.8382
 21
141.943
  0
LINE
  8
0
 10
88.8382
 20
141.943
 11
88.7897
 21
141.848
  0
LINE
  8
0
 10
88.7897
 20
141.848
 11
88.7354
 21
141.756
  0
LINE
  8
0
 10
88.7354
 20
141.756
 11
88.6753
 21
141.667
  0
LINE
  8
0
 10
88.6753
 20
141.667
 11
88.6099
 21
141.583
  0
LINE
  8
0
 10
88.6099
 20
141.583
 11
88.5392
 21
141.503
  0
LINE
  8
0
 10
88.5392
 20
141.503
 11
88.4637
 21
141.427
  0
LINE
  8
0
 10
88.4637
 20
141.427
 11
88.3836
 21
141.357
  0
LINE
  8
0
 10
88.3836
 20
141.357
 11
88.2992
 21
141.291
  0
LINE
  8
0
 10
88.2992
 20
141.291
 11
88.2109
 21
141.231
  0
LINE
  8
0
 10
88.2109
 20
141.231
 11
88.119
 21
141.177
  0
LINE
  8
0
 10
88.119
 20
141.177
 11
88.0238
 21
141.128
  0
LINE
  8
0
 10
88.0238
 20
141.128
 11
87.9258
 21
141.086
  0
LINE
  8
0
 10
87.9258
 20
141.086
 11
87.8253
 21
141.05
  0
LINE
  8
0
 10
87.8253
 20
141.05
 11
87.7228
 21
141.02
  0
LINE
  8
0
 10
87.7228
 20
141.02
 11
87.6185
 21
140.997
  0
LINE
  8
0
 10
87.6185
 20
140.997
 11
87.5131
 21
140.98
  0
LINE
  8
0
 10
87.5131
 20
140.98
 11
87.4067
 21
140.97
  0
LINE
  8
0
 10
87.4067
 20
140.97
 11
87.3
 21
140.967
  0
LINE
  8
0
 10
126.7
 20
140.967
 11
126.593
 21
140.97
  0
LINE
  8
0
 10
126.593
 20
140.97
 11
126.487
 21
140.98
  0
LINE
  8
0
 10
126.487
 20
140.98
 11
126.381
 21
140.997
  0
LINE
  8
0
 10
126.381
 20
140.997
 11
126.277
 21
141.02
  0
LINE
  8
0
 10
126.277
 20
141.02
 11
126.175
 21
141.05
  0
LINE
  8
0
 10
126.175
 20
141.05
 11
126.074
 21
141.086
  0
LINE
  8
0
 10
126.074
 20
141.086
 11
125.976
 21
141.128
  0
LINE
  8
0
 10
125.976
 20
141.128
 11
125.881
 21
141.177
  0
LINE
  8
0
 10
125.881
 20
141.177
 11
125.789
 21
141.231
  0
LINE
  8
0
 10
125.789
 20
141.231
 11
125.701
 21
141.291
  0
LINE
  8
0
 10
125.701
 20
141.291
 11
125.616
 21
141.357
  0
LINE
  8
0
 10
125.616
 20
141.357
 11
125.536
 21
141.427
  0
LINE
  8
0
 10
125.536
 20
141.427
 11
125.461
 21
141.503
  0
LINE
  8
0
 10
125.461
 20
141.503
 11
125.39
 21
141.583
  0
LINE
  8
0
 10
125.39
 20
141.583
 11
125.325
 21
141.667
  0
LINE
  8
0
 10
125.325
 20
141.667
 11
125.265
 21
141.756
  0
LINE
  8
0
 10
125.265
 20
141.756
 11
125.21
 21
141.848
  0
LINE
  8
0
 10
125.21
 20
141.848
 11
125.162
 21
141.943
  0
LINE
  8
0
 10
125.162
 20
141.943
 11
125.119
 21
142.041
  0
LINE
  8
0
 10
125.119
 20
142.041
 11
125.083
 21
142.141
  0
LINE
  8
0
 10
125.083
 20
142.141
 11
125.053
 21
142.244
  0
LINE
  8
0
 10
125.053
 20
142.244
 11
125.03
 21
142.348
  0
LINE
  8
0
 10
125.03
 20
142.348
 11
125.013
 21
142.454
  0
LINE
  8
0
 10
125.013
 20
142.454
 11
125.003
 21
142.56
  0
LINE
  8
0
 10
125.003
 20
142.56
 11
125
 21
142.667
  0
LINE
  8
0
 10
125
 20
142.667
 11
125.003
 21
142.773
  0
LINE
  8
0
 10
125.003
 20
142.773
 11
125.013
 21
142.88
  0
LINE
  8
0
 10
125.013
 20
142.88
 11
125.03
 21
142.985
  0
LINE
  8
0
 10
125.03
 20
142.985
 11
125.053
 21
143.089
  0
LINE
  8
0
 10
125.053
 20
143.089
 11
125.083
 21
143.192
  0
LINE
  8
0
 10
125.083
 20
143.192
 11
125.119
 21
143.292
  0
LINE
  8
0
 10
125.119
 20
143.292
 11
125.162
 21
143.39
  0
LINE
  8
0
 10
125.162
 20
143.39
 11
125.21
 21
143.486
  0
LINE
  8
0
 10
125.21
 20
143.486
 11
125.265
 21
143.578
  0
LINE
  8
0
 10
125.265
 20
143.578
 11
125.325
 21
143.666
  0
LINE
  8
0
 10
125.325
 20
143.666
 11
125.39
 21
143.75
  0
LINE
  8
0
 10
125.39
 20
143.75
 11
125.461
 21
143.83
  0
LINE
  8
0
 10
125.461
 20
143.83
 11
125.536
 21
143.906
  0
LINE
  8
0
 10
125.536
 20
143.906
 11
125.616
 21
143.977
  0
LINE
  8
0
 10
125.616
 20
143.977
 11
125.701
 21
144.042
  0
LINE
  8
0
 10
125.701
 20
144.042
 11
125.789
 21
144.102
  0
LINE
  8
0
 10
125.789
 20
144.102
 11
125.881
 21
144.156
  0
LINE
  8
0
 10
125.881
 20
144.156
 11
125.976
 21
144.205
  0
LINE
  8
0
 10
125.976
 20
144.205
 11
126.074
 21
144.247
  0
LINE
  8
0
 10
126.074
 20
144.247
 11
126.175
 21
144.283
  0
LINE
  8
0
 10
126.175
 20
144.283
 11
126.277
 21
144.313
  0
LINE
  8
0
 10
126.277
 20
144.313
 11
126.381
 21
144.337
  0
LINE
  8
0
 10
126.381
 20
144.337
 11
126.487
 21
144.353
  0
LINE
  8
0
 10
126.487
 20
144.353
 11
126.593
 21
144.363
  0
LINE
  8
0
 10
126.593
 20
144.363
 11
126.7
 21
144.367
  0
LINE
  8
0
 10
126.7
 20
144.367
 11
126.807
 21
144.363
  0
LINE
  8
0
 10
126.807
 20
144.363
 11
126.913
 21
144.353
  0
LINE
  8
0
 10
126.913
 20
144.353
 11
127.019
 21
144.337
  0
LINE
  8
0
 10
127.019
 20
144.337
 11
127.123
 21
144.313
  0
LINE
  8
0
 10
127.123
 20
144.313
 11
127.225
 21
144.283
  0
LINE
  8
0
 10
127.225
 20
144.283
 11
127.326
 21
144.247
  0
LINE
  8
0
 10
127.326
 20
144.247
 11
127.424
 21
144.205
  0
LINE
  8
0
 10
127.424
 20
144.205
 11
127.519
 21
144.156
  0
LINE
  8
0
 10
127.519
 20
144.156
 11
127.611
 21
144.102
  0
LINE
  8
0
 10
127.611
 20
144.102
 11
127.699
 21
144.042
  0
LINE
  8
0
 10
127.699
 20
144.042
 11
127.784
 21
143.977
  0
LINE
  8
0
 10
127.784
 20
143.977
 11
127.864
 21
143.906
  0
LINE
  8
0
 10
127.864
 20
143.906
 11
127.939
 21
143.83
  0
LINE
  8
0
 10
127.939
 20
143.83
 11
128.01
 21
143.75
  0
LINE
  8
0
 10
128.01
 20
143.75
 11
128.075
 21
143.666
  0
LINE
  8
0
 10
128.075
 20
143.666
 11
128.135
 21
143.578
  0
LINE
  8
0
 10
128.135
 20
143.578
 11
128.19
 21
143.486
  0
LINE
  8
0
 10
128.19
 20
143.486
 11
128.238
 21
143.39
  0
LINE
  8
0
 10
128.238
 20
143.39
 11
128.281
 21
143.292
  0
LINE
  8
0
 10
128.281
 20
143.292
 11
128.317
 21
143.192
  0
LINE
  8
0
 10
128.317
 20
143.192
 11
128.347
 21
143.089
  0
LINE
  8
0
 10
128.347
 20
143.089
 11
128.37
 21
142.985
  0
LINE
  8
0
 10
128.37
 20
142.985
 11
128.387
 21
142.88
  0
LINE
  8
0
 10
128.387
 20
142.88
 11
128.397
 21
142.773
  0
LINE
  8
0
 10
128.397
 20
142.773
 11
128.4
 21
142.667
  0
LINE
  8
0
 10
128.4
 20
142.667
 11
128.397
 21
142.56
  0
LINE
  8
0
 10
128.397
 20
142.56
 11
128.387
 21
142.454
  0
LINE
  8
0
 10
128.387
 20
142.454
 11
128.37
 21
142.348
  0
LINE
  8
0
 10
128.37
 20
142.348
 11
128.347
 21
142.244
  0
LINE
  8
0
 10
128.347
 20
142.244
 11
128.317
 21
142.141
  0
LINE
  8
0
 10
128.317
 20
142.141
 11
128.281
 21
142.041
  0
LINE
  8
0
 10
128.281
 20
142.041
 11
128.238
 21
141.943
  0
LINE
  8
0
 10
128.238
 20
141.943
 11
128.19
 21
141.848
  0
LINE
  8
0
 10
128.19
 20
141.848
 11
128.135
 21
141.756
  0
LINE
  8
0
 10
128.135
 20
141.756
 11
128.075
 21
141.667
  0
LINE
  8
0
 10
128.075
 20
141.667
 11
128.01
 21
141.583
  0
LINE
  8
0
 10
128.01
 20
141.583
 11
127.939
 21
141.503
  0
LINE
  8
0
 10
127.939
 20
141.503
 11
127.864
 21
141.427
  0
LINE
  8
0
 10
127.864
 20
141.427
 11
127.784
 21
141.357
  0
LINE
  8
0
 10
127.784
 20
141.357
 11
127.699
 21
141.291
  0
LINE
  8
0
 10
127.699
 20
141.291
 11
127.611
 21
141.231
  0
LINE
  8
0
 10
127.611
 20
141.231
 11
127.519
 21
141.177
  0
LINE
  8
0
 10
127.519
 20
141.177
 11
127.424
 21
141.128
  0
LINE
  8
0
 10
127.424
 20
141.128
 11
127.326
 21
141.086
  0
LINE
  8
0
 10
127.326
 20
141.086
 11
127.225
 21
141.05
  0
LINE
  8
0
 10
127.225
 20
141.05
 11
127.123
 21
141.02
  0
LINE
  8
0
 10
127.123
 20
141.02
 11
127.019
 21
140.997
  0
LINE
  8
0
 10
127.019
 20
140.997
 11
126.913
 21
140.98
  0
LINE
  8
0
 10
126.913
 20
140.98
 11
126.807
 21
140.97
  0
LINE
  8
0
 10
126.807
 20
140.97
 11
126.7
 21
140.967
  0
LINE
  8
0
 10
87.3
 20
105.3
 11
87.1933
 21
105.303
  0
LINE
  8
0
 10
87.1933
 20
105.303
 11
87.0869
 21
105.313
  0
LINE
  8
0
 10
87.0869
 20
105.313
 11
86.9814
 21
105.33
  0
LINE
  8
0
 10
86.9814
 20
105.33
 11
86.8772
 21
105.353
  0
LINE
  8
0
 10
86.8772
 20
105.353
 11
86.7747
 21
105.383
  0
LINE
  8
0
 10
86.7747
 20
105.383
 11
86.6742
 21
105.419
  0
LINE
  8
0
 10
86.6742
 20
105.419
 11
86.5762
 21
105.462
  0
LINE
  8
0
 10
86.5762
 20
105.462
 11
86.481
 21
105.51
  0
LINE
  8
0
 10
86.481
 20
105.51
 11
86.3891
 21
105.565
  0
LINE
  8
0
 10
86.3891
 20
105.565
 11
86.3008
 21
105.625
  0
LINE
  8
0
 10
86.3008
 20
105.625
 11
86.2164
 21
105.69
  0
LINE
  8
0
 10
86.2164
 20
105.69
 11
86.1363
 21
105.761
  0
LINE
  8
0
 10
86.1363
 20
105.761
 11
86.0607
 21
105.836
  0
LINE
  8
0
 10
86.0607
 20
105.836
 11
85.9901
 21
105.916
  0
LINE
  8
0
 10
85.9901
 20
105.916
 11
85.9247
 21
106.001
  0
LINE
  8
0
 10
85.9247
 20
106.001
 11
85.8646
 21
106.089
  0
LINE
  8
0
 10
85.8646
 20
106.089
 11
85.8103
 21
106.181
  0
LINE
  8
0
 10
85.8103
 20
106.181
 11
85.7618
 21
106.276
  0
LINE
  8
0
 10
85.7618
 20
106.276
 11
85.7194
 21
106.374
  0
LINE
  8
0
 10
85.7194
 20
106.374
 11
85.6832
 21
106.475
  0
LINE
  8
0
 10
85.6832
 20
106.475
 11
85.6534
 21
106.577
  0
LINE
  8
0
 10
85.6534
 20
106.577
 11
85.6301
 21
106.681
  0
LINE
  8
0
 10
85.6301
 20
106.681
 11
85.6134
 21
106.787
  0
LINE
  8
0
 10
85.6134
 20
106.787
 11
85.6033
 21
106.893
  0
LINE
  8
0
 10
85.6033
 20
106.893
 11
85.6
 21
107
  0
LINE
  8
0
 10
85.6
 20
107
 11
85.6033
 21
107.107
  0
LINE
  8
0
 10
85.6033
 20
107.107
 11
85.6134
 21
107.213
  0
LINE
  8
0
 10
85.6134
 20
107.213
 11
85.6301
 21
107.319
  0
LINE
  8
0
 10
85.6301
 20
107.319
 11
85.6534
 21
107.423
  0
LINE
  8
0
 10
85.6534
 20
107.423
 11
85.6832
 21
107.525
  0
LINE
  8
0
 10
85.6832
 20
107.525
 11
85.7194
 21
107.626
  0
LINE
  8
0
 10
85.7194
 20
107.626
 11
85.7618
 21
107.724
  0
LINE
  8
0
 10
85.7618
 20
107.724
 11
85.8103
 21
107.819
  0
LINE
  8
0
 10
85.8103
 20
107.819
 11
85.8646
 21
107.911
  0
LINE
  8
0
 10
85.8646
 20
107.911
 11
85.9247
 21
107.999
  0
LINE
  8
0
 10
85.9247
 20
107.999
 11
85.9901
 21
108.084
  0
LINE
  8
0
 10
85.9901
 20
108.084
 11
86.0607
 21
108.164
  0
LINE
  8
0
 10
86.0607
 20
108.164
 11
86.1363
 21
108.239
  0
LINE
  8
0
 10
86.1363
 20
108.239
 11
86.2164
 21
108.31
  0
LINE
  8
0
 10
86.2164
 20
108.31
 11
86.3008
 21
108.375
  0
LINE
  8
0
 10
86.3008
 20
108.375
 11
86.3891
 21
108.435
  0
LINE
  8
0
 10
86.3891
 20
108.435
 11
86.481
 21
108.49
  0
LINE
  8
0
 10
86.481
 20
108.49
 11
86.5762
 21
108.538
  0
LINE
  8
0
 10
86.5762
 20
108.538
 11
86.6742
 21
108.581
  0
LINE
  8
0
 10
86.6742
 20
108.581
 11
86.7747
 21
108.617
  0
LINE
  8
0
 10
86.7747
 20
108.617
 11
86.8772
 21
108.647
  0
LINE
  8
0
 10
86.8772
 20
108.647
 11
86.9814
 21
108.67
  0
LINE
  8
0
 10
86.9814
 20
108.67
 11
87.0869
 21
108.687
  0
LINE
  8
0
 10
87.0869
 20
108.687
 11
87.1933
 21
108.697
  0
LINE
  8
0
 10
87.1933
 20
108.697
 11
87.3
 21
108.7
  0
LINE
  8
0
 10
87.3
 20
108.7
 11
87.4067
 21
108.697
  0
LINE
  8
0
 10
87.4067
 20
108.697
 11
87.5131
 21
108.687
  0
LINE
  8
0
 10
87.5131
 20
108.687
 11
87.6185
 21
108.67
  0
LINE
  8
0
 10
87.6185
 20
108.67
 11
87.7228
 21
108.647
  0
LINE
  8
0
 10
87.7228
 20
108.647
 11
87.8253
 21
108.617
  0
LINE
  8
0
 10
87.8253
 20
108.617
 11
87.9258
 21
108.581
  0
LINE
  8
0
 10
87.9258
 20
108.581
 11
88.0238
 21
108.538
  0
LINE
  8
0
 10
88.0238
 20
108.538
 11
88.119
 21
108.49
  0
LINE
  8
0
 10
88.119
 20
108.49
 11
88.2109
 21
108.435
  0
LINE
  8
0
 10
88.2109
 20
108.435
 11
88.2992
 21
108.375
  0
LINE
  8
0
 10
88.2992
 20
108.375
 11
88.3836
 21
108.31
  0
LINE
  8
0
 10
88.3836
 20
108.31
 11
88.4637
 21
108.239
  0
LINE
  8
0
 10
88.4637
 20
108.239
 11
88.5392
 21
108.164
  0
LINE
  8
0
 10
88.5392
 20
108.164
 11
88.6099
 21
108.084
  0
LINE
  8
0
 10
88.6099
 20
108.084
 11
88.6753
 21
107.999
  0
LINE
  8
0
 10
88.6753
 20
107.999
 11
88.7354
 21
107.911
  0
LINE
  8
0
 10
88.7354
 20
107.911
 11
88.7897
 21
107.819
  0
LINE
  8
0
 10
88.7897
 20
107.819
 11
88.8382
 21
107.724
  0
LINE
  8
0
 10
88.8382
 20
107.724
 11
88.8806
 21
107.626
  0
LINE
  8
0
 10
88.8806
 20
107.626
 11
88.9168
 21
107.525
  0
LINE
  8
0
 10
88.9168
 20
107.525
 11
88.9466
 21
107.423
  0
LINE
  8
0
 10
88.9466
 20
107.423
 11
88.9699
 21
107.319
  0
LINE
  8
0
 10
88.9699
 20
107.319
 11
88.9866
 21
107.213
  0
LINE
  8
0
 10
88.9866
 20
107.213
 11
88.9966
 21
107.107
  0
LINE
  8
0
 10
88.9966
 20
107.107
 11
89
 21
107
  0
LINE
  8
0
 10
89
 20
107
 11
88.9966
 21
106.893
  0
LINE
  8
0
 10
88.9966
 20
106.893
 11
88.9866
 21
106.787
  0
LINE
  8
0
 10
88.9866
 20
106.787
 11
88.9699
 21
106.681
  0
LINE
  8
0
 10
88.9699
 20
106.681
 11
88.9466
 21
106.577
  0
LINE
  8
0
 10
88.9466
 20
106.577
 11
88.9168
 21
106.475
  0
LINE
  8
0
 10
88.9168
 20
106.475
 11
88.8806
 21
106.374
  0
LINE
  8
0
 10
88.8806
 20
106.374
 11
88.8382
 21
106.276
  0
LINE
  8
0
 10
88.8382
 20
106.276
 11
88.7897
 21
106.181
  0
LINE
  8
0
 10
88.7897
 20
106.181
 11
88.7354
 21
106.089
  0
LINE
  8
0
 10
88.7354
 20
106.089
 11
88.6753
 21
106.001
  0
LINE
  8
0
 10
88.6753
 20
106.001
 11
88.6099
 21
105.916
  0
LINE
  8
0
 10
88.6099
 20
105.916
 11
88.5392
 21
105.836
  0
LINE
  8
0
 10
88.5392
 20
105.836
 11
88.4637
 21
105.761
  0
LINE
  8
0
 10
88.4637
 20
105.761
 11
88.3836
 21
105.69
  0
LINE
  8
0
 10
88.3836
 20
105.69
 11
88.2992
 21
105.625
  0
LINE
  8
0
 10
88.2992
 20
105.625
 11
88.2109
 21
105.565
  0
LINE
  8
0
 10
88.2109
 20
105.565
 11
88.119
 21
105.51
  0
LINE
  8
0
 10
88.119
 20
105.51
 11
88.0238
 21
105.462
  0
LINE
  8
0
 10
88.0238
 20
105.462
 11
87.9258
 21
105.419
  0
LINE
  8
0
 10
87.9258
 20
105.419
 11
87.8253
 21
105.383
  0
LINE
  8
0
 10
87.8253
 20
105.383
 11
87.7228
 21
105.353
  0
LINE
  8
0
 10
87.7228
 20
105.353
 11
87.6185
 21
105.33
  0
LINE
  8
0
 10
87.6185
 20
105.33
 11
87.5131
 21
105.313
  0
LINE
  8
0
 10
87.5131
 20
105.313
 11
87.4067
 21
105.303
  0
LINE
  8
0
 10
87.4067
 20
105.303
 11
87.3
 21
105.3
  0
LINE
  8
0
 10
126.7
 20
105.3
 11
126.593
 21
105.303
  0
LINE
  8
0
 10
126.593
 20
105.303
 11
126.487
 21
105.313
  0
LINE
  8
0
 10
126.487
 20
105.313
 11
126.381
 21
105.33
  0
LINE
  8
0
 10
126.381
 20
105.33
 11
126.277
 21
105.353
  0
LINE
  8
0
 10
126.277
 20
105.353
 11
126.175
 21
105.383
  0
LINE
  8
0
 10
126.175
 20
105.383
 11
126.074
 21
105.419
  0
LINE
  8
0
 10
126.074
 20
105.419
 11
125.976
 21
105.462
  0
LINE
  8
0
 10
125.976
 20
105.462
 11
125.881
 21
105.51
  0
LINE
  8
0
 10
125.881
 20
105.51
 11
125.789
 21
105.565
  0
LINE
  8
0
 10
125.789
 20
105.565
 11
125.701
 21
105.625
  0
LINE
  8
0
 10
125.701
 20
105.625
 11
125.616
 21
105.69
  0
LINE
  8
0
 10
125.616
 20
105.69
 11
125.536
 21
105.761
  0
LINE
  8
0
 10
125.536
 20
105.761
 11
125.461
 21
105.836
  0
LINE
  8
0
 10
125.461
 20
105.836
 11
125.39
 21
105.916
  0
LINE
  8
0
 10
125.39
 20
105.916
 11
125.325
 21
106.001
  0
LINE
  8
0
 10
125.325
 20
106.001
 11
125.265
 21
106.089
  0
LINE
  8
0
 10
125.265
 20
106.089
 11
125.21
 21
106.181
  0
LINE
  8
0
 10
125.21
 20
106.181
 11
125.162
 21
106.276
  0
LINE
  8
0
 10
125.162
 20
106.276
 11
125.119
 21
106.374
  0
LINE
  8
0
 10
125.119
 20
106.374
 11
125.083
 21
106.475
  0
LINE
  8
0
 10
125.083
 20
106.475
 11
125.053
 21
106.577
  0
LINE
  8
0
 10
125.053
 20
106.577
 11
125.03
 21
106.681
  0
LINE
  8
0
 10
125.03
 20
106.681
 11
125.013
 21
106.787
  0
LINE
  8
0
 10
125.013
 20
106.787
 11
125.003
 21
106.893
  0
LINE
  8
0
 10
125.003
 20
106.893
 11
125
 21
107
  0
LINE
  8
0
 10
125
 20
107
 11
125.003
 21
107.107
  0
LINE
  8
0
 10
125.003
 20
107.107
 11
125.013
 21
107.213
  0
LINE
  8
0
 10
125.013
 20
107.213
 11
125.03
 21
107.319
  0
LINE
  8
0
 10
125.03
 20
107.319
 11
125.053
 21
107.423
  0
LINE
  8
0
 10
125.053
 20
107.423
 11
125.083
 21
107.525
  0
LINE
  8
0
 10
125.083
 20
107.525
 11
125.119
 21
107.626
  0
LINE
  8
0
 10
125.119
 20
107.626
 11
125.162
 21
107.724
  0
LINE
  8
0
 10
125.162
 20
107.724
 11
125.21
 21
107.819
  0
LINE
  8
0
 10
125.21
 20
107.819
 11
125.265
 21
107.911
  0
LINE
  8
0
 10
125.265
 20
107.911
 11
125.325
 21
107.999
  0
LINE
  8
0
 10
125.325
 20
107.999
 11
125.39
 21
108.084
  0
LINE
  8
0
 10
125.39
 20
108.084
 11
125.461
 21
108.164
  0
LINE
  8
0
 10
125.461
 20
108.164
 11
125.536
 21
108.239
  0
LINE
  8
0
 10
125.536
 20
108.239
 11
125.616
 21
108.31
  0
LINE
  8
0
 10
125.616
 20
108.31
 11
125.701
 21
108.375
  0
LINE
  8
0
 10
125.701
 20
108.375
 11
125.789
 21
108.435
  0
LINE
  8
0
 10
125.789
 20
108.435
 11
125.881
 21
108.49
  0
LINE
  8
0
 10
125.881
 20
108.49
 11
125.976
 21
108.538
  0
LINE
  8
0
 10
125.976
 20
108.538
 11
126.074
 21
108.581
  0
LINE
  8
0
 10
126.074
 20
108.581
 11
126.175
 21
108.617
  0
LINE
  8
0
 10
126.175
 20
108.617
 11
126.277
 21
108.647
  0
LINE
  8
0
 10
126.277
 20
108.647
 11
126.381
 21
108.67
  0
LINE
  8
0
 10
126.381
 20
108.67
 11
126.487
 21
108.687
  0
LINE
  8
0
 10
126.487
 20
108.687
 11
126.593
 21
108.697
  0
LINE
  8
0
 10
126.593
 20
108.697
 11
126.7
 21
108.7
  0
LINE
  8
0
 10
126.7
 20
108.7
 11
126.807
 21
108.697
  0
LINE
  8
0
 10
126.807
 20
108.697
 11
126.913
 21
108.687
  0
LINE
  8
0
 10
126.913
 20
108.687
 11
127.019
 21
108.67
  0
LINE
  8
0
 10
127.019
 20
108.67
 11
127.123
 21
108.647
  0
LINE
  8
0
 10
127.123
 20
108.647
 11
127.225
 21
108.617
  0
LINE
  8
0
 10
127.225
 20
108.617
 11
127.326
 21
108.581
  0
LINE
  8
0
 10
127.326
 20
108.581
 11
127.424
 21
108.538
  0
LINE
  8
0
 10
127.424
 20
108.538
 11
127.519
 21
108.49
  0
LINE
  8
0
 10
127.519
 20
108.49
 11
127.611
 21
108.435
  0
LINE
  8
0
 10
127.611
 20
108.435
 11
127.699
 21
108.375
  0
LINE
  8
0
 10
127.699
 20
108.375
 11
127.784
 21
108.31
  0
LINE
  8
0
 10
127.784
 20
108.31
 11
127.864
 21
108.239
  0
LINE
  8
0
 10
127.864
 20
108.239
 11
127.939
 21
108.164
  0
LINE
  8
0
 10
127.939
 20
108.164
 11
128.01
 21
108.084
  0
LINE
  8
0
 10
128.01
 20
108.084
 11
128.075
 21
107.999
  0
LINE
  8
0
 10
128.075
 20
107.999
 11
128.135
 21
107.911
  0
LINE
  8
0
 10
128.135
 20
107.911
 11
128.19
 21
107.819
  0
LINE
  8
0
 10
128.19
 20
107.819
 11
128.238
 21
107.724
  0
LINE
  8
0
 10
128.238
 20
107.724
 11
128.281
 21
107.626
  0
LINE
  8
0
 10
128.281
 20
107.626
 11
128.317
 21
107.525
  0
LINE
  8
0
 10
128.317
 20
107.525
 11
128.347
 21
107.423
  0
LINE
  8
0
 10
128.347
 20
107.423
 11
128.37
 21
107.319
  0
LINE
  8
0
 10
128.37
 20
107.319
 11
128.387
 21
107.213
  0
LINE
  8
0
 10
128.387
 20
107.213
 11
128.397
 21
107.107
  0
LINE
  8
0
 10
128.397
 20
107.107
 11
128.4
 21
107
  0
LINE
  8
0
 10
128.4
 20
107
 11
128.397
 21
106.893
  0
LINE
  8
0
 10
128.397
 20
106.893
 11
128.387
 21
106.787
  0
LINE
  8
0
 10
128.387
 20
106.787
 11
128.37
 21
106.681
  0
LINE
  8
0
 10
128.37
 20
106.681
 11
128.347
 21
106.577
  0
LINE
  8
0
 10
128.347
 20
106.577
 11
128.317
 21
106.475
  0
LINE
  8
0
 10
128.317
 20
106.475
 11
128.281
 21
106.374
  0
LINE
  8
0
 10
128.281
 20
106.374
 11
128.238
 21
106.276
  0
LINE
  8
0
 10
128.238
 20
106.276
 11
128.19
 21
106.181
  0
LINE
  8
0
 10
128.19
 20
106.181
 11
128.135
 21
106.089
  0
LINE
  8
0
 10
128.135
 20
106.089
 11
128.075
 21
106.001
  0
LINE
  8
0
 10
128.075
 20
106.001
 11
128.01
 21
105.916
  0
LINE
  8
0
 10
128.01
 20
105.916
 11
127.939
 21
105.836
  0
LINE
  8
0
 10
127.939
 20
105.836
 11
127.864
 21
105.761
  0
LINE
  8
0
 10
127.864
 20
105.761
 11
127.784
 21
105.69
  0
LINE
  8
0
 10
127.784
 20
105.69
 11
127.699
 21
105.625
  0
LINE
  8
0
 10
127.699
 20
105.625
 11
127.611
 21
105.565
  0
LINE
  8
0
 10
127.611
 20
105.565
 11
127.519
 21
105.51
  0
LINE
  8
0
 10
127.519
 20
105.51
 11
127.424
 21
105.462
  0
LINE
  8
0
 10
127.424
 20
105.462
 11
127.326
 21
105.419
  0
LINE
  8
0
 10
127.326
 20
105.419
 11
127.225
 21
105.383
  0
LINE
  8
0
 10
127.225
 20
105.383
 11
127.123
 21
105.353
  0
LINE
  8
0
 10
127.123
 20
105.353
 11
127.019
 21
105.33
  0
LINE
  8
0
 10
127.019
 20
105.33
 11
126.913
 21
105.313
  0
LINE
  8
0
 10
126.913
 20
105.313
 11
126.807
 21
105.303
  0
LINE
  8
0
 10
126.807
 20
105.303
 11
126.7
 21
105.3
  0
LINE
  8
0
 10
2.7
 20
105.3
 11
2.59325
 21
105.303
  0
LINE
  8
0
 10
2.59325
 20
105.303
 11
2.48692
 21
105.313
  0
LINE
  8
0
 10
2.48692
 20
105.313
 11
2.38144
 21
105.33
  0
LINE
  8
0
 10
2.38144
 20
105.33
 11
2.27722
 21
105.353
  0
LINE
  8
0
 10
2.27722
 20
105.353
 11
2.17467
 21
105.383
  0
LINE
  8
0
 10
2.17467
 20
105.383
 11
2.07419
 21
105.419
  0
LINE
  8
0
 10
2.07419
 20
105.419
 11
1.97617
 21
105.462
  0
LINE
  8
0
 10
1.97617
 20
105.462
 11
1.88101
 21
105.51
  0
LINE
  8
0
 10
1.88101
 20
105.51
 11
1.78909
 21
105.565
  0
LINE
  8
0
 10
1.78909
 20
105.565
 11
1.70076
 21
105.625
  0
LINE
  8
0
 10
1.70076
 20
105.625
 11
1.61638
 21
105.69
  0
LINE
  8
0
 10
1.61638
 20
105.69
 11
1.53625
 21
105.761
  0
LINE
  8
0
 10
1.53625
 20
105.761
 11
1.46074
 21
105.836
  0
LINE
  8
0
 10
1.46074
 20
105.836
 11
1.39012
 21
105.916
  0
LINE
  8
0
 10
1.39012
 20
105.916
 11
1.32466
 21
106.001
  0
LINE
  8
0
 10
1.32466
 20
106.001
 11
1.26463
 21
106.089
  0
LINE
  8
0
 10
1.26463
 20
106.089
 11
1.21027
 21
106.181
  0
LINE
  8
0
 10
1.21027
 20
106.181
 11
1.16179
 21
106.276
  0
LINE
  8
0
 10
1.16179
 20
106.276
 11
1.11937
 21
106.374
  0
LINE
  8
0
 10
1.11937
 20
106.374
 11
1.08319
 21
106.475
  0
LINE
  8
0
 10
1.08319
 20
106.475
 11
1.05341
 21
106.577
  0
LINE
  8
0
 10
1.05341
 20
106.577
 11
1.03011
 21
106.681
  0
LINE
  8
0
 10
1.03011
 20
106.681
 11
1.0134
 21
106.787
  0
LINE
  8
0
 10
1.0134
 20
106.787
 11
1.00334
 21
106.893
  0
LINE
  8
0
 10
1.00334
 20
106.893
 11
1
 21
107
  0
LINE
  8
0
 10
1
 20
107
 11
1.00334
 21
107.107
  0
LINE
  8
0
 10
1.00334
 20
107.107
 11
1.0134
 21
107.213
  0
LINE
  8
0
 10
1.0134
 20
107.213
 11
1.03011
 21
107.319
  0
LINE
  8
0
 10
1.03011
 20
107.319
 11
1.05341
 21
107.423
  0
LINE
  8
0
 10
1.05341
 20
107.423
 11
1.08319
 21
107.525
  0
LINE
  8
0
 10
1.08319
 20
107.525
 11
1.11937
 21
107.626
  0
LINE
  8
0
 10
1.11937
 20
107.626
 11
1.16179
 21
107.724
  0
LINE
  8
0
 10
1.16179
 20
107.724
 11
1.21027
 21
107.819
  0
LINE
  8
0
 10
1.21027
 20
107.819
 11
1.26463
 21
107.911
  0
LINE
  8
0
 10
1.26463
 20
107.911
 11
1.32466
 21
107.999
  0
LINE
  8
0
 10
1.32466
 20
107.999
 11
1.39012
 21
108.084
  0
LINE
  8
0
 10
1.39012
 20
108.084
 11
1.46074
 21
108.164
  0
LINE
  8
0
 10
1.46074
 20
108.164
 11
1.53625
 21
108.239
  0
LINE
  8
0
 10
1.53625
 20
108.239
 11
1.61638
 21
108.31
  0
LINE
  8
0
 10
1.61638
 20
108.31
 11
1.70076
 21
108.375
  0
LINE
  8
0
 10
1.70076
 20
108.375
 11
1.78909
 21
108.435
  0
LINE
  8
0
 10
1.78909
 20
108.435
 11
1.88101
 21
108.49
  0
LINE
  8
0
 10
1.88101
 20
108.49
 11
1.97617
 21
108.538
  0
LINE
  8
0
 10
1.97617
 20
108.538
 11
2.07419
 21
108.581
  0
LINE
  8
0
 10
2.07419
 20
108.581
 11
2.17467
 21
108.617
  0
LINE
  8
0
 10
2.17467
 20
108.617
 11
2.27722
 21
108.647
  0
LINE
  8
0
 10
2.27722
 20
108.647
 11
2.38144
 21
108.67
  0
LINE
  8
0
 10
2.38144
 20
108.67
 11
2.48692
 21
108.687
  0
LINE
  8
0
 10
2.48692
 20
108.687
 11
2.59325
 21
108.697
  0
LINE
  8
0
 10
2.59325
 20
108.697
 11
2.7
 21
108.7
  0
LINE
  8
0
 10
2.7
 20
108.7
 11
2.80673
 21
108.697
  0
LINE
  8
0
 10
2.80673
 20
108.697
 11
2.91306
 21
108.687
  0
LINE
  8
0
 10
2.91306
 20
108.687
 11
3.01854
 21
108.67
  0
LINE
  8
0
 10
3.01854
 20
108.67
 11
3.12277
 21
108.647
  0
LINE
  8
0
 10
3.12277
 20
108.647
 11
3.22533
 21
108.617
  0
LINE
  8
0
 10
3.22533
 20
108.617
 11
3.32581
 21
108.581
  0
LINE
  8
0
 10
3.32581
 20
108.581
 11
3.42381
 21
108.538
  0
LINE
  8
0
 10
3.42381
 20
108.538
 11
3.51897
 21
108.49
  0
LINE
  8
0
 10
3.51897
 20
108.49
 11
3.6109
 21
108.435
  0
LINE
  8
0
 10
3.6109
 20
108.435
 11
3.69923
 21
108.375
  0
LINE
  8
0
 10
3.69923
 20
108.375
 11
3.78362
 21
108.31
  0
LINE
  8
0
 10
3.78362
 20
108.31
 11
3.86372
 21
108.239
  0
LINE
  8
0
 10
3.86372
 20
108.239
 11
3.93924
 21
108.164
  0
LINE
  8
0
 10
3.93924
 20
108.164
 11
4.00987
 21
108.084
  0
LINE
  8
0
 10
4.00987
 20
108.084
 11
4.07532
 21
107.999
  0
LINE
  8
0
 10
4.07532
 20
107.999
 11
4.13535
 21
107.911
  0
LINE
  8
0
 10
4.13535
 20
107.911
 11
4.18971
 21
107.819
  0
LINE
  8
0
 10
4.18971
 20
107.819
 11
4.2382
 21
107.724
  0
LINE
  8
0
 10
4.2382
 20
107.724
 11
4.28061
 21
107.626
  0
LINE
  8
0
 10
4.28061
 20
107.626
 11
4.31679
 21
107.525
  0
LINE
  8
0
 10
4.31679
 20
107.525
 11
4.34659
 21
107.423
  0
LINE
  8
0
 10
4.34659
 20
107.423
 11
4.36989
 21
107.319
  0
LINE
  8
0
 10
4.36989
 20
107.319
 11
4.38658
 21
107.213
  0
LINE
  8
0
 10
4.38658
 20
107.213
 11
4.39664
 21
107.107
  0
LINE
  8
0
 10
4.39664
 20
107.107
 11
4.39999
 21
107
  0
LINE
  8
0
 10
4.39999
 20
107
 11
4.39664
 21
106.893
  0
LINE
  8
0
 10
4.39664
 20
106.893
 11
4.38658
 21
106.787
  0
LINE
  8
0
 10
4.38658
 20
106.787
 11
4.36989
 21
106.681
  0
LINE
  8
0
 10
4.36989
 20
106.681
 11
4.34659
 21
106.577
  0
LINE
  8
0
 10
4.34659
 20
106.577
 11
4.31679
 21
106.475
  0
LINE
  8
0
 10
4.31679
 20
106.475
 11
4.28061
 21
106.374
  0
LINE
  8
0
 10
4.28061
 20
106.374
 11
4.2382
 21
106.276
  0
LINE
  8
0
 10
4.2382
 20
106.276
 11
4.18971
 21
106.181
  0
LINE
  8
0
 10
4.18971
 20
106.181
 11
4.13535
 21
106.089
  0
LINE
  8
0
 10
4.13535
 20
106.089
 11
4.07532
 21
106.001
  0
LINE
  8
0
 10
4.07532
 20
106.001
 11
4.00987
 21
105.916
  0
LINE
  8
0
 10
4.00987
 20
105.916
 11
3.93924
 21
105.836
  0
LINE
  8
0
 10
3.93924
 20
105.836
 11
3.86372
 21
105.761
  0
LINE
  8
0
 10
3.86372
 20
105.761
 11
3.78362
 21
105.69
  0
LINE
  8
0
 10
3.78362
 20
105.69
 11
3.69923
 21
105.625
  0
LINE
  8
0
 10
3.69923
 20
105.625
 11
3.6109
 21
105.565
  0
LINE
  8
0
 10
3.6109
 20
105.565
 11
3.51897
 21
105.51
  0
LINE
  8
0
 10
3.51897
 20
105.51
 11
3.42381
 21
105.462
  0
LINE
  8
0
 10
3.42381
 20
105.462
 11
3.32581
 21
105.419
  0
LINE
  8
0
 10
3.32581
 20
105.419
 11
3.22533
 21
105.383
  0
LINE
  8
0
 10
3.22533
 20
105.383
 11
3.12277
 21
105.353
  0
LINE
  8
0
 10
3.12277
 20
105.353
 11
3.01854
 21
105.33
  0
LINE
  8
0
 10
3.01854
 20
105.33
 11
2.91306
 21
105.313
  0
LINE
  8
0
 10
2.91306
 20
105.313
 11
2.80673
 21
105.303
  0
LINE
  8
0
 10
2.80673
 20
105.303
 11
2.7
 21
105.3
  0
LINE
  8
0
 10
211.3
 20
105.3
 11
211.193
 21
105.303
  0
LINE
  8
0
 10
211.193
 20
105.303
 11
211.087
 21
105.313
  0
LINE
  8
0
 10
211.087
 20
105.313
 11
210.981
 21
105.33
  0
LINE
  8
0
 10
210.981
 20
105.33
 11
210.877
 21
105.353
  0
LINE
  8
0
 10
210.877
 20
105.353
 11
210.775
 21
105.383
  0
LINE
  8
0
 10
210.775
 20
105.383
 11
210.674
 21
105.419
  0
LINE
  8
0
 10
210.674
 20
105.419
 11
210.576
 21
105.462
  0
LINE
  8
0
 10
210.576
 20
105.462
 11
210.481
 21
105.51
  0
LINE
  8
0
 10
210.481
 20
105.51
 11
210.389
 21
105.565
  0
LINE
  8
0
 10
210.389
 20
105.565
 11
210.301
 21
105.625
  0
LINE
  8
0
 10
210.301
 20
105.625
 11
210.216
 21
105.69
  0
LINE
  8
0
 10
210.216
 20
105.69
 11
210.136
 21
105.761
  0
LINE
  8
0
 10
210.136
 20
105.761
 11
210.061
 21
105.836
  0
LINE
  8
0
 10
210.061
 20
105.836
 11
209.99
 21
105.916
  0
LINE
  8
0
 10
209.99
 20
105.916
 11
209.925
 21
106.001
  0
LINE
  8
0
 10
209.925
 20
106.001
 11
209.865
 21
106.089
  0
LINE
  8
0
 10
209.865
 20
106.089
 11
209.81
 21
106.181
  0
LINE
  8
0
 10
209.81
 20
106.181
 11
209.762
 21
106.276
  0
LINE
  8
0
 10
209.762
 20
106.276
 11
209.719
 21
106.374
  0
LINE
  8
0
 10
209.719
 20
106.374
 11
209.683
 21
106.475
  0
LINE
  8
0
 10
209.683
 20
106.475
 11
209.653
 21
106.577
  0
LINE
  8
0
 10
209.653
 20
106.577
 11
209.63
 21
106.681
  0
LINE
  8
0
 10
209.63
 20
106.681
 11
209.613
 21
106.787
  0
LINE
  8
0
 10
209.613
 20
106.787
 11
209.603
 21
106.893
  0
LINE
  8
0
 10
209.603
 20
106.893
 11
209.6
 21
107
  0
LINE
  8
0
 10
209.6
 20
107
 11
209.603
 21
107.107
  0
LINE
  8
0
 10
209.603
 20
107.107
 11
209.613
 21
107.213
  0
LINE
  8
0
 10
209.613
 20
107.213
 11
209.63
 21
107.319
  0
LINE
  8
0
 10
209.63
 20
107.319
 11
209.653
 21
107.423
  0
LINE
  8
0
 10
209.653
 20
107.423
 11
209.683
 21
107.525
  0
LINE
  8
0
 10
209.683
 20
107.525
 11
209.719
 21
107.626
  0
LINE
  8
0
 10
209.719
 20
107.626
 11
209.762
 21
107.724
  0
LINE
  8
0
 10
209.762
 20
107.724
 11
209.81
 21
107.819
  0
LINE
  8
0
 10
209.81
 20
107.819
 11
209.865
 21
107.911
  0
LINE
  8
0
 10
209.865
 20
107.911
 11
209.925
 21
107.999
  0
LINE
  8
0
 10
209.925
 20
107.999
 11
209.99
 21
108.084
  0
LINE
  8
0
 10
209.99
 20
108.084
 11
210.061
 21
108.164
  0
LINE
  8
0
 10
210.061
 20
108.164
 11
210.136
 21
108.239
  0
LINE
  8
0
 10
210.136
 20
108.239
 11
210.216
 21
108.31
  0
LINE
  8
0
 10
210.216
 20
108.31
 11
210.301
 21
108.375
  0
LINE
  8
0
 10
210.301
 20
108.375
 11
210.389
 21
108.435
  0
LINE
  8
0
 10
210.389
 20
108.435
 11
210.481
 21
108.49
  0
LINE
  8
0
 10
210.481
 20
108.49
 11
210.576
 21
108.538
  0
LINE
  8
0
 10
210.576
 20
108.538
 11
210.674
 21
108.581
  0
LINE
  8
0
 10
210.674
 20
108.581
 11
210.775
 21
108.617
  0
LINE
  8
0
 10
210.775
 20
108.617
 11
210.877
 21
108.647
  0
LINE
  8
0
 10
210.877
 20
108.647
 11
210.981
 21
108.67
  0
LINE
  8
0
 10
210.981
 20
108.67
 11
211.087
 21
108.687
  0
LINE
  8
0
 10
211.087
 20
108.687
 11
211.193
 21
108.697
  0
LINE
  8
0
 10
211.193
 20
108.697
 11
211.3
 21
108.7
  0
LINE
  8
0
 10
211.3
 20
108.7
 11
211.407
 21
108.697
  0
LINE
  8
0
 10
211.407
 20
108.697
 11
211.513
 21
108.687
  0
LINE
  8
0
 10
211.513
 20
108.687
 11
211.619
 21
108.67
  0
LINE
  8
0
 10
211.619
 20
108.67
 11
211.723
 21
108.647
  0
LINE
  8
0
 10
211.723
 20
108.647
 11
211.825
 21
108.617
  0
LINE
  8
0
 10
211.825
 20
108.617
 11
211.926
 21
108.581
  0
LINE
  8
0
 10
211.926
 20
108.581
 11
212.024
 21
108.538
  0
LINE
  8
0
 10
212.024
 20
108.538
 11
212.119
 21
108.49
  0
LINE
  8
0
 10
212.119
 20
108.49
 11
212.211
 21
108.435
  0
LINE
  8
0
 10
212.211
 20
108.435
 11
212.299
 21
108.375
  0
LINE
  8
0
 10
212.299
 20
108.375
 11
212.384
 21
108.31
  0
LINE
  8
0
 10
212.384
 20
108.31
 11
212.464
 21
108.239
  0
LINE
  8
0
 10
212.464
 20
108.239
 11
212.539
 21
108.164
  0
LINE
  8
0
 10
212.539
 20
108.164
 11
212.61
 21
108.084
  0
LINE
  8
0
 10
212.61
 20
108.084
 11
212.675
 21
107.999
  0
LINE
  8
0
 10
212.675
 20
107.999
 11
212.735
 21
107.911
  0
LINE
  8
0
 10
212.735
 20
107.911
 11
212.79
 21
107.819
  0
LINE
  8
0
 10
212.79
 20
107.819
 11
212.838
 21
107.724
  0
LINE
  8
0
 10
212.838
 20
107.724
 11
212.881
 21
107.626
  0
LINE
  8
0
 10
212.881
 20
107.626
 11
212.917
 21
107.525
  0
LINE
  8
0
 10
212.917
 20
107.525
 11
212.947
 21
107.423
  0
LINE
  8
0
 10
212.947
 20
107.423
 11
212.97
 21
107.319
  0
LINE
  8
0
 10
212.97
 20
107.319
 11
212.987
 21
107.213
  0
LINE
  8
0
 10
212.987
 20
107.213
 11
212.997
 21
107.107
  0
LINE
  8
0
 10
212.997
 20
107.107
 11
213
 21
107
  0
LINE
  8
0
 10
213
 20
107
 11
212.997
 21
106.893
  0
LINE
  8
0
 10
212.997
 20
106.893
 11
212.987
 21
106.787
  0
LINE
  8
0
 10
212.987
 20
106.787
 11
212.97
 21
106.681
  0
LINE
  8
0
 10
212.97
 20
106.681
 11
212.947
 21
106.577
  0
LINE
  8
0
 10
212.947
 20
106.577
 11
212.917
 21
106.475
  0
LINE
  8
0
 10
212.917
 20
106.475
 11
212.881
 21
106.374
  0
LINE
  8
0
 10
212.881
 20
106.374
 11
212.838
 21
106.276
  0
LINE
  8
0
 10
212.838
 20
106.276
 11
212.79
 21
106.181
  0
LINE
  8
0
 10
212.79
 20
106.181
 11
212.735
 21
106.089
  0
LINE
  8
0
 10
212.735
 20
106.089
 11
212.675
 21
106.001
  0
LINE
  8
0
 10
212.675
 20
106.001
 11
212.61
 21
105.916
  0
LINE
  8
0
 10
212.61
 20
105.916
 11
212.539
 21
105.836
  0
LINE
  8
0
 10
212.539
 20
105.836
 11
212.464
 21
105.761
  0
LINE
  8
0
 10
212.464
 20
105.761
 11
212.384
 21
105.69
  0
LINE
  8
0
 10
212.384
 20
105.69
 11
212.299
 21
105.625
  0
LINE
  8
0
 10
212.299
 20
105.625
 11
212.211
 21
105.565
  0
LINE
  8
0
 10
212.211
 20
105.565
 11
212.119
 21
105.51
  0
LINE
  8
0
 10
212.119
 20
105.51
 11
212.024
 21
105.462
  0
LINE
  8
0
 10
212.024
 20
105.462
 11
211.926
 21
105.419
  0
LINE
  8
0
 10
211.926
 20
105.419
 11
211.825
 21
105.383
  0
LINE
  8
0
 10
211.825
 20
105.383
 11
211.723
 21
105.353
  0
LINE
  8
0
 10
211.723
 20
105.353
 11
211.619
 21
105.33
  0
LINE
  8
0
 10
211.619
 20
105.33
 11
211.513
 21
105.313
  0
LINE
  8
0
 10
211.513
 20
105.313
 11
211.407
 21
105.303
  0
LINE
  8
0
 10
211.407
 20
105.303
 11
211.3
 21
105.3
  0
LINE
  8
0
 10
142.667
 20
42.7
 11
142.56
 21
42.7034
  0
LINE
  8
0
 10
142.56
 20
42.7034
 11
142.454
 21
42.7134
  0
LINE
  8
0
 10
142.454
 20
42.7134
 11
142.348
 21
42.7301
  0
LINE
  8
0
 10
142.348
 20
42.7301
 11
142.244
 21
42.7534
  0
LINE
  8
0
 10
142.244
 20
42.7534
 11
142.141
 21
42.7832
  0
LINE
  8
0
 10
142.141
 20
42.7832
 11
142.041
 21
42.8194
  0
LINE
  8
0
 10
142.041
 20
42.8194
 11
141.943
 21
42.8618
  0
LINE
  8
0
 10
141.943
 20
42.8618
 11
141.848
 21
42.9103
  0
LINE
  8
0
 10
141.848
 20
42.9103
 11
141.756
 21
42.9646
  0
LINE
  8
0
 10
141.756
 20
42.9646
 11
141.667
 21
43.0247
  0
LINE
  8
0
 10
141.667
 20
43.0247
 11
141.583
 21
43.0901
  0
LINE
  8
0
 10
141.583
 20
43.0901
 11
141.503
 21
43.1608
  0
LINE
  8
0
 10
141.503
 20
43.1608
 11
141.427
 21
43.2363
  0
LINE
  8
0
 10
141.427
 20
43.2363
 11
141.357
 21
43.3164
  0
LINE
  8
0
 10
141.357
 20
43.3164
 11
141.291
 21
43.4008
  0
LINE
  8
0
 10
141.291
 20
43.4008
 11
141.231
 21
43.4891
  0
LINE
  8
0
 10
141.231
 20
43.4891
 11
141.177
 21
43.581
  0
LINE
  8
0
 10
141.177
 20
43.581
 11
141.128
 21
43.6762
  0
LINE
  8
0
 10
141.128
 20
43.6762
 11
141.086
 21
43.7742
  0
LINE
  8
0
 10
141.086
 20
43.7742
 11
141.05
 21
43.8747
  0
LINE
  8
0
 10
141.05
 20
43.8747
 11
141.02
 21
43.9772
  0
LINE
  8
0
 10
141.02
 20
43.9772
 11
140.997
 21
44.0815
  0
LINE
  8
0
 10
140.997
 20
44.0815
 11
140.98
 21
44.1869
  0
LINE
  8
0
 10
140.98
 20
44.1869
 11
140.97
 21
44.2932
  0
LINE
  8
0
 10
140.97
 20
44.2932
 11
140.967
 21
44.4
  0
LINE
  8
0
 10
140.967
 20
44.4
 11
140.97
 21
44.5067
  0
LINE
  8
0
 10
140.97
 20
44.5067
 11
140.98
 21
44.6131
  0
LINE
  8
0
 10
140.98
 20
44.6131
 11
140.997
 21
44.7185
  0
LINE
  8
0
 10
140.997
 20
44.7185
 11
141.02
 21
44.8228
  0
LINE
  8
0
 10
141.02
 20
44.8228
 11
141.05
 21
44.9253
  0
LINE
  8
0
 10
141.05
 20
44.9253
 11
141.086
 21
45.0258
  0
LINE
  8
0
 10
141.086
 20
45.0258
 11
141.128
 21
45.1238
  0
LINE
  8
0
 10
141.128
 20
45.1238
 11
141.177
 21
45.219
  0
LINE
  8
0
 10
141.177
 20
45.219
 11
141.231
 21
45.3109
  0
LINE
  8
0
 10
141.231
 20
45.3109
 11
141.291
 21
45.3992
  0
LINE
  8
0
 10
141.291
 20
45.3992
 11
141.357
 21
45.4836
  0
LINE
  8
0
 10
141.357
 20
45.4836
 11
141.427
 21
45.5637
  0
LINE
  8
0
 10
141.427
 20
45.5637
 11
141.503
 21
45.6392
  0
LINE
  8
0
 10
141.503
 20
45.6392
 11
141.583
 21
45.7099
  0
LINE
  8
0
 10
141.583
 20
45.7099
 11
141.667
 21
45.7753
  0
LINE
  8
0
 10
141.667
 20
45.7753
 11
141.756
 21
45.8353
  0
LINE
  8
0
 10
141.756
 20
45.8353
 11
141.848
 21
45.8897
  0
LINE
  8
0
 10
141.848
 20
45.8897
 11
141.943
 21
45.9382
  0
LINE
  8
0
 10
141.943
 20
45.9382
 11
142.041
 21
45.9806
  0
LINE
  8
0
 10
142.041
 20
45.9806
 11
142.141
 21
46.0168
  0
LINE
  8
0
 10
142.141
 20
46.0168
 11
142.244
 21
46.0466
  0
LINE
  8
0
 10
142.244
 20
46.0466
 11
142.348
 21
46.0699
  0
LINE
  8
0
 10
142.348
 20
46.0699
 11
142.454
 21
46.0866
  0
LINE
  8
0
 10
142.454
 20
46.0866
 11
142.56
 21
46.0966
  0
LINE
  8
0
 10
142.56
 20
46.0966
 11
142.667
 21
46.1
  0
LINE
  8
0
 10
142.667
 20
46.1
 11
142.773
 21
46.0966
  0
LINE
  8
0
 10
142.773
 20
46.0966
 11
142.88
 21
46.0866
  0
LINE
  8
0
 10
142.88
 20
46.0866
 11
142.985
 21
46.0699
  0
LINE
  8
0
 10
142.985
 20
46.0699
 11
143.089
 21
46.0466
  0
LINE
  8
0
 10
143.089
 20
46.0466
 11
143.192
 21
46.0168
  0
LINE
  8
0
 10
143.192
 20
46.0168
 11
143.292
 21
45.9806
  0
LINE
  8
0
 10
143.292
 20
45.9806
 11
143.39
 21
45.9382
  0
LINE
  8
0
 10
143.39
 20
45.9382
 11
143.486
 21
45.8897
  0
LINE
  8
0
 10
143.486
 20
45.8897
 11
143.578
 21
45.8353
  0
LINE
  8
0
 10
143.578
 20
45.8353
 11
143.666
 21
45.7753
  0
LINE
  8
0
 10
143.666
 20
45.7753
 11
143.75
 21
45.7099
  0
LINE
  8
0
 10
143.75
 20
45.7099
 11
143.83
 21
45.6392
  0
LINE
  8
0
 10
143.83
 20
45.6392
 11
143.906
 21
45.5637
  0
LINE
  8
0
 10
143.906
 20
45.5637
 11
143.977
 21
45.4836
  0
LINE
  8
0
 10
143.977
 20
45.4836
 11
144.042
 21
45.3992
  0
LINE
  8
0
 10
144.042
 20
45.3992
 11
144.102
 21
45.3109
  0
LINE
  8
0
 10
144.102
 20
45.3109
 11
144.156
 21
45.219
  0
LINE
  8
0
 10
144.156
 20
45.219
 11
144.205
 21
45.1238
  0
LINE
  8
0
 10
144.205
 20
45.1238
 11
144.247
 21
45.0258
  0
LINE
  8
0
 10
144.247
 20
45.0258
 11
144.283
 21
44.9253
  0
LINE
  8
0
 10
144.283
 20
44.9253
 11
144.313
 21
44.8228
  0
LINE
  8
0
 10
144.313
 20
44.8228
 11
144.337
 21
44.7185
  0
LINE
  8
0
 10
144.337
 20
44.7185
 11
144.353
 21
44.6131
  0
LINE
  8
0
 10
144.353
 20
44.6131
 11
144.363
 21
44.5067
  0
LINE
  8
0
 10
144.363
 20
44.5067
 11
144.367
 21
44.4
  0
LINE
  8
0
 10
144.367
 20
44.4
 11
144.363
 21
44.2932
  0
LINE
  8
0
 10
144.363
 20
44.2932
 11
144.353
 21
44.1869
  0
LINE
  8
0
 10
144.353
 20
44.1869
 11
144.337
 21
44.0815
  0
LINE
  8
0
 10
144.337
 20
44.0815
 11
144.313
 21
43.9772
  0
LINE
  8
0
 10
144.313
 20
43.9772
 11
144.283
 21
43.8747
  0
LINE
  8
0
 10
144.283
 20
43.8747
 11
144.247
 21
43.7742
  0
LINE
  8
0
 10
144.247
 20
43.7742
 11
144.205
 21
43.6762
  0
LINE
  8
0
 10
144.205
 20
43.6762
 11
144.156
 21
43.581
  0
LINE
  8
0
 10
144.156
 20
43.581
 11
144.102
 21
43.4891
  0
LINE
  8
0
 10
144.102
 20
43.4891
 11
144.042
 21
43.4008
  0
LINE
  8
0
 10
144.042
 20
43.4008
 11
143.977
 21
43.3164
  0
LINE
  8
0
 10
143.977
 20
43.3164
 11
143.906
 21
43.2363
  0
LINE
  8
0
 10
143.906
 20
43.2363
 11
143.83
 21
43.1608
  0
LINE
  8
0
 10
143.83
 20
43.1608
 11
143.75
 21
43.0901
  0
LINE
  8
0
 10
143.75
 20
43.0901
 11
143.666
 21
43.0247
  0
LINE
  8
0
 10
143.666
 20
43.0247
 11
143.578
 21
42.9646
  0
LINE
  8
0
 10
143.578
 20
42.9646
 11
143.486
 21
42.9103
  0
LINE
  8
0
 10
143.486
 20
42.9103
 11
143.39
 21
42.8618
  0
LINE
  8
0
 10
143.39
 20
42.8618
 11
143.292
 21
42.8194
  0
LINE
  8
0
 10
143.292
 20
42.8194
 11
143.192
 21
42.7832
  0
LINE
  8
0
 10
143.192
 20
42.7832
 11
143.089
 21
42.7534
  0
LINE
  8
0
 10
143.089
 20
42.7534
 11
142.985
 21
42.7301
  0
LINE
  8
0
 10
142.985
 20
42.7301
 11
142.88
 21
42.7134
  0
LINE
  8
0
 10
142.88
 20
42.7134
 11
142.773
 21
42.7034
  0
LINE
  8
0
 10
142.773
 20
42.7034
 11
142.667
 21
42.7
  0
LINE
  8
0
 10
71.3333
 20
42.7
 11
71.2266
 21
42.7034
  0
LINE
  8
0
 10
71.2266
 20
42.7034
 11
71.1203
 21
42.7134
  0
LINE
  8
0
 10
71.1203
 20
42.7134
 11
71.0148
 21
42.7301
  0
LINE
  8
0
 10
71.0148
 20
42.7301
 11
70.9106
 21
42.7534
  0
LINE
  8
0
 10
70.9106
 20
42.7534
 11
70.808
 21
42.7832
  0
LINE
  8
0
 10
70.808
 20
42.7832
 11
70.7075
 21
42.8194
  0
LINE
  8
0
 10
70.7075
 20
42.8194
 11
70.6095
 21
42.8618
  0
LINE
  8
0
 10
70.6095
 20
42.8618
 11
70.5143
 21
42.9103
  0
LINE
  8
0
 10
70.5143
 20
42.9103
 11
70.4224
 21
42.9646
  0
LINE
  8
0
 10
70.4224
 20
42.9646
 11
70.3341
 21
43.0247
  0
LINE
  8
0
 10
70.3341
 20
43.0247
 11
70.2497
 21
43.0901
  0
LINE
  8
0
 10
70.2497
 20
43.0901
 11
70.1696
 21
43.1608
  0
LINE
  8
0
 10
70.1696
 20
43.1608
 11
70.0941
 21
43.2363
  0
LINE
  8
0
 10
70.0941
 20
43.2363
 11
70.0235
 21
43.3164
  0
LINE
  8
0
 10
70.0235
 20
43.3164
 11
69.958
 21
43.4008
  0
LINE
  8
0
 10
69.958
 20
43.4008
 11
69.898
 21
43.4891
  0
LINE
  8
0
 10
69.898
 20
43.4891
 11
69.8436
 21
43.581
  0
LINE
  8
0
 10
69.8436
 20
43.581
 11
69.7951
 21
43.6762
  0
LINE
  8
0
 10
69.7951
 20
43.6762
 11
69.7527
 21
43.7742
  0
LINE
  8
0
 10
69.7527
 20
43.7742
 11
69.7165
 21
43.8747
  0
LINE
  8
0
 10
69.7165
 20
43.8747
 11
69.6867
 21
43.9772
  0
LINE
  8
0
 10
69.6867
 20
43.9772
 11
69.6634
 21
44.0815
  0
LINE
  8
0
 10
69.6634
 20
44.0815
 11
69.6467
 21
44.1869
  0
LINE
  8
0
 10
69.6467
 20
44.1869
 11
69.6367
 21
44.2932
  0
LINE
  8
0
 10
69.6367
 20
44.2932
 11
69.6333
 21
44.4
  0
LINE
  8
0
 10
69.6333
 20
44.4
 11
69.6367
 21
44.5067
  0
LINE
  8
0
 10
69.6367
 20
44.5067
 11
69.6467
 21
44.6131
  0
LINE
  8
0
 10
69.6467
 20
44.6131
 11
69.6634
 21
44.7185
  0
LINE
  8
0
 10
69.6634
 20
44.7185
 11
69.6867
 21
44.8228
  0
LINE
  8
0
 10
69.6867
 20
44.8228
 11
69.7165
 21
44.9253
  0
LINE
  8
0
 10
69.7165
 20
44.9253
 11
69.7527
 21
45.0258
  0
LINE
  8
0
 10
69.7527
 20
45.0258
 11
69.7951
 21
45.1238
  0
LINE
  8
0
 10
69.7951
 20
45.1238
 11
69.8436
 21
45.219
  0
LINE
  8
0
 10
69.8436
 20
45.219
 11
69.898
 21
45.3109
  0
LINE
  8
0
 10
69.898
 20
45.3109
 11
69.958
 21
45.3992
  0
LINE
  8
0
 10
69.958
 20
45.3992
 11
70.0235
 21
45.4836
  0
LINE
  8
0
 10
70.0235
 20
45.4836
 11
70.0941
 21
45.5637
  0
LINE
  8
0
 10
70.0941
 20
45.5637
 11
70.1696
 21
45.6392
  0
LINE
  8
0
 10
70.1696
 20
45.6392
 11
70.2497
 21
45.7099
  0
LINE
  8
0
 10
70.2497
 20
45.7099
 11
70.3341
 21
45.7753
  0
LINE
  8
0
 10
70.3341
 20
45.7753
 11
70.4224
 21
45.8353
  0
LINE
  8
0
 10
70.4224
 20
45.8353
 11
70.5143
 21
45.8897
  0
LINE
  8
0
 10
70.5143
 20
45.8897
 11
70.6095
 21
45.9382
  0
LINE
  8
0
 10
70.6095
 20
45.9382
 11
70.7075
 21
45.9806
  0
LINE
  8
0
 10
70.7075
 20
45.9806
 11
70.808
 21
46.0168
  0
LINE
  8
0
 10
70.808
 20
46.0168
 11
70.9106
 21
46.0466
  0
LINE
  8
0
 10
70.9106
 20
46.0466
 11
71.0148
 21
46.0699
  0
LINE
  8
0
 10
71.0148
 20
46.0699
 11
71.1203
 21
46.0866
  0
LINE
  8
0
 10
71.1203
 20
46.0866
 11
71.2266
 21
46.0966
  0
LINE
  8
0
 10
71.2266
 20
46.0966
 11
71.3333
 21
46.1
  0
LINE
  8
0
 10
71.3333
 20
46.1
 11
71.4401
 21
46.0966
  0
LINE
  8
0
 10
71.4401
 20
46.0966
 11
71.5464
 21
46.0866
  0
LINE
  8
0
 10
71.5464
 20
46.0866
 11
71.6519
 21
46.0699
  0
LINE
  8
0
 10
71.6519
 20
46.0699
 11
71.7561
 21
46.0466
  0
LINE
  8
0
 10
71.7561
 20
46.0466
 11
71.8587
 21
46.0168
  0
LINE
  8
0
 10
71.8587
 20
46.0168
 11
71.9591
 21
45.9806
  0
LINE
  8
0
 10
71.9591
 20
45.9806
 11
72.0571
 21
45.9382
  0
LINE
  8
0
 10
72.0571
 20
45.9382
 11
72.1523
 21
45.8897
  0
LINE
  8
0
 10
72.1523
 20
45.8897
 11
72.2442
 21
45.8353
  0
LINE
  8
0
 10
72.2442
 20
45.8353
 11
72.3326
 21
45.7753
  0
LINE
  8
0
 10
72.3326
 20
45.7753
 11
72.4169
 21
45.7099
  0
LINE
  8
0
 10
72.4169
 20
45.7099
 11
72.4971
 21
45.6392
  0
LINE
  8
0
 10
72.4971
 20
45.6392
 11
72.5726
 21
45.5637
  0
LINE
  8
0
 10
72.5726
 20
45.5637
 11
72.6432
 21
45.4836
  0
LINE
  8
0
 10
72.6432
 20
45.4836
 11
72.7086
 21
45.3992
  0
LINE
  8
0
 10
72.7086
 20
45.3992
 11
72.7687
 21
45.3109
  0
LINE
  8
0
 10
72.7687
 20
45.3109
 11
72.823
 21
45.219
  0
LINE
  8
0
 10
72.823
 20
45.219
 11
72.8715
 21
45.1238
  0
LINE
  8
0
 10
72.8715
 20
45.1238
 11
72.9139
 21
45.0258
  0
LINE
  8
0
 10
72.9139
 20
45.0258
 11
72.9501
 21
44.9253
  0
LINE
  8
0
 10
72.9501
 20
44.9253
 11
72.9799
 21
44.8228
  0
LINE
  8
0
 10
72.9799
 20
44.8228
 11
73.0032
 21
44.7185
  0
LINE
  8
0
 10
73.0032
 20
44.7185
 11
73.0199
 21
44.6131
  0
LINE
  8
0
 10
73.0199
 20
44.6131
 11
73.03
 21
44.5067
  0
LINE
  8
0
 10
73.03
 20
44.5067
 11
73.0333
 21
44.4
  0
LINE
  8
0
 10
73.0333
 20
44.4
 11
73.03
 21
44.2932
  0
LINE
  8
0
 10
73.03
 20
44.2932
 11
73.0199
 21
44.1869
  0
LINE
  8
0
 10
73.0199
 20
44.1869
 11
73.0032
 21
44.0815
  0
LINE
  8
0
 10
73.0032
 20
44.0815
 11
72.9799
 21
43.9772
  0
LINE
  8
0
 10
72.9799
 20
43.9772
 11
72.9501
 21
43.8747
  0
LINE
  8
0
 10
72.9501
 20
43.8747
 11
72.9139
 21
43.7742
  0
LINE
  8
0
 10
72.9139
 20
43.7742
 11
72.8715
 21
43.6762
  0
LINE
  8
0
 10
72.8715
 20
43.6762
 11
72.823
 21
43.581
  0
LINE
  8
0
 10
72.823
 20
43.581
 11
72.7687
 21
43.4891
  0
LINE
  8
0
 10
72.7687
 20
43.4891
 11
72.7086
 21
43.4008
  0
LINE
  8
0
 10
72.7086
 20
43.4008
 11
72.6432
 21
43.3164
  0
LINE
  8
0
 10
72.6432
 20
43.3164
 11
72.5726
 21
43.2363
  0
LINE
  8
0
 10
72.5726
 20
43.2363
 11
72.4971
 21
43.1608
  0
LINE
  8
0
 10
72.4971
 20
43.1608
 11
72.4169
 21
43.0901
  0
LINE
  8
0
 10
72.4169
 20
43.0901
 11
72.3326
 21
43.0247
  0
LINE
  8
0
 10
72.3326
 20
43.0247
 11
72.2442
 21
42.9646
  0
LINE
  8
0
 10
72.2442
 20
42.9646
 11
72.1523
 21
42.9103
  0
LINE
  8
0
 10
72.1523
 20
42.9103
 11
72.0571
 21
42.8618
  0
LINE
  8
0
 10
72.0571
 20
42.8618
 11
71.9591
 21
42.8194
  0
LINE
  8
0
 10
71.9591
 20
42.8194
 11
71.8587
 21
42.7832
  0
LINE
  8
0
 10
71.8587
 20
42.7832
 11
71.7561
 21
42.7534
  0
LINE
  8
0
 10
71.7561
 20
42.7534
 11
71.6519
 21
42.7301
  0
LINE
  8
0
 10
71.6519
 20
42.7301
 11
71.5464
 21
42.7134
  0
LINE
  8
0
 10
71.5464
 20
42.7134
 11
71.4401
 21
42.7034
  0
LINE
  8
0
 10
71.4401
 20
42.7034
 11
71.3333
 21
42.7
  0
LINE
  8
0
 10
107
 20
42.7
 11
106.893
 21
42.7034
  0
LINE
  8
0
 10
106.893
 20
42.7034
 11
106.787
 21
42.7134
  0
LINE
  8
0
 10
106.787
 20
42.7134
 11
106.681
 21
42.7301
  0
LINE
  8
0
 10
106.681
 20
42.7301
 11
106.577
 21
42.7534
  0
LINE
  8
0
 10
106.577
 20
42.7534
 11
106.475
 21
42.7832
  0
LINE
  8
0
 10
106.475
 20
42.7832
 11
106.374
 21
42.8194
  0
LINE
  8
0
 10
106.374
 20
42.8194
 11
106.276
 21
42.8618
  0
LINE
  8
0
 10
106.276
 20
42.8618
 11
106.181
 21
42.9103
  0
LINE
  8
0
 10
106.181
 20
42.9103
 11
106.089
 21
42.9646
  0
LINE
  8
0
 10
106.089
 20
42.9646
 11
106.001
 21
43.0247
  0
LINE
  8
0
 10
106.001
 20
43.0247
 11
105.916
 21
43.0901
  0
LINE
  8
0
 10
105.916
 20
43.0901
 11
105.836
 21
43.1608
  0
LINE
  8
0
 10
105.836
 20
43.1608
 11
105.761
 21
43.2363
  0
LINE
  8
0
 10
105.761
 20
43.2363
 11
105.69
 21
43.3164
  0
LINE
  8
0
 10
105.69
 20
43.3164
 11
105.625
 21
43.4008
  0
LINE
  8
0
 10
105.625
 20
43.4008
 11
105.565
 21
43.4891
  0
LINE
  8
0
 10
105.565
 20
43.4891
 11
105.51
 21
43.581
  0
LINE
  8
0
 10
105.51
 20
43.581
 11
105.462
 21
43.6762
  0
LINE
  8
0
 10
105.462
 20
43.6762
 11
105.419
 21
43.7742
  0
LINE
  8
0
 10
105.419
 20
43.7742
 11
105.383
 21
43.8747
  0
LINE
  8
0
 10
105.383
 20
43.8747
 11
105.353
 21
43.9772
  0
LINE
  8
0
 10
105.353
 20
43.9772
 11
105.33
 21
44.0815
  0
LINE
  8
0
 10
105.33
 20
44.0815
 11
105.313
 21
44.1869
  0
LINE
  8
0
 10
105.313
 20
44.1869
 11
105.303
 21
44.2932
  0
LINE
  8
0
 10
105.303
 20
44.2932
 11
105.3
 21
44.4
  0
LINE
  8
0
 10
105.3
 20
44.4
 11
105.303
 21
44.5067
  0
LINE
  8
0
 10
105.303
 20
44.5067
 11
105.313
 21
44.6131
  0
LINE
  8
0
 10
105.313
 20
44.6131
 11
105.33
 21
44.7185
  0
LINE
  8
0
 10
105.33
 20
44.7185
 11
105.353
 21
44.8228
  0
LINE
  8
0
 10
105.353
 20
44.8228
 11
105.383
 21
44.9253
  0
LINE
  8
0
 10
105.383
 20
44.9253
 11
105.419
 21
45.0258
  0
LINE
  8
0
 10
105.419
 20
45.0258
 11
105.462
 21
45.1238
  0
LINE
  8
0
 10
105.462
 20
45.1238
 11
105.51
 21
45.219
  0
LINE
  8
0
 10
105.51
 20
45.219
 11
105.565
 21
45.3109
  0
LINE
  8
0
 10
105.565
 20
45.3109
 11
105.625
 21
45.3992
  0
LINE
  8
0
 10
105.625
 20
45.3992
 11
105.69
 21
45.4836
  0
LINE
  8
0
 10
105.69
 20
45.4836
 11
105.761
 21
45.5637
  0
LINE
  8
0
 10
105.761
 20
45.5637
 11
105.836
 21
45.6392
  0
LINE
  8
0
 10
105.836
 20
45.6392
 11
105.916
 21
45.7099
  0
LINE
  8
0
 10
105.916
 20
45.7099
 11
106.001
 21
45.7753
  0
LINE
  8
0
 10
106.001
 20
45.7753
 11
106.089
 21
45.8353
  0
LINE
  8
0
 10
106.089
 20
45.8353
 11
106.181
 21
45.8897
  0
LINE
  8
0
 10
106.181
 20
45.8897
 11
106.276
 21
45.9382
  0
LINE
  8
0
 10
106.276
 20
45.9382
 11
106.374
 21
45.9806
  0
LINE
  8
0
 10
106.374
 20
45.9806
 11
106.475
 21
46.0168
  0
LINE
  8
0
 10
106.475
 20
46.0168
 11
106.577
 21
46.0466
  0
LINE
  8
0
 10
106.577
 20
46.0466
 11
106.681
 21
46.0699
  0
LINE
  8
0
 10
106.681
 20
46.0699
 11
106.787
 21
46.0866
  0
LINE
  8
0
 10
106.787
 20
46.0866
 11
106.893
 21
46.0966
  0
LINE
  8
0
 10
106.893
 20
46.0966
 11
107
 21
46.1
  0
LINE
  8
0
 10
107
 20
46.1
 11
107.107
 21
46.0966
  0
LINE
  8
0
 10
107.107
 20
46.0966
 11
107.213
 21
46.0866
  0
LINE
  8
0
 10
107.213
 20
46.0866
 11
107.319
 21
46.0699
  0
LINE
  8
0
 10
107.319
 20
46.0699
 11
107.423
 21
46.0466
  0
LINE
  8
0
 10
107.423
 20
46.0466
 11
107.525
 21
46.0168
  0
LINE
  8
0
 10
107.525
 20
46.0168
 11
107.626
 21
45.9806
  0
LINE
  8
0
 10
107.626
 20
45.9806
 11
107.724
 21
45.9382
  0
LINE
  8
0
 10
107.724
 20
45.9382
 11
107.819
 21
45.8897
  0
LINE
  8
0
 10
107.819
 20
45.8897
 11
107.911
 21
45.8353
  0
LINE
  8
0
 10
107.911
 20
45.8353
 11
107.999
 21
45.7753
  0
LINE
  8
0
 10
107.999
 20
45.7753
 11
108.084
 21
45.7099
  0
LINE
  8
0
 10
108.084
 20
45.7099
 11
108.164
 21
45.6392
  0
LINE
  8
0
 10
108.164
 20
45.6392
 11
108.239
 21
45.5637
  0
LINE
  8
0
 10
108.239
 20
45.5637
 11
108.31
 21
45.4836
  0
LINE
  8
0
 10
108.31
 20
45.4836
 11
108.375
 21
45.3992
  0
LINE
  8
0
 10
108.375
 20
45.3992
 11
108.435
 21
45.3109
  0
LINE
  8
0
 10
108.435
 20
45.3109
 11
108.49
 21
45.219
  0
LINE
  8
0
 10
108.49
 20
45.219
 11
108.538
 21
45.1238
  0
LINE
  8
0
 10
108.538
 20
45.1238
 11
108.581
 21
45.0258
  0
LINE
  8
0
 10
108.581
 20
45.0258
 11
108.617
 21
44.9253
  0
LINE
  8
0
 10
108.617
 20
44.9253
 11
108.647
 21
44.8228
  0
LINE
  8
0
 10
108.647
 20
44.8228
 11
108.67
 21
44.7185
  0
LINE
  8
0
 10
108.67
 20
44.7185
 11
108.687
 21
44.6131
  0
LINE
  8
0
 10
108.687
 20
44.6131
 11
108.697
 21
44.5067
  0
LINE
  8
0
 10
108.697
 20
44.5067
 11
108.7
 21
44.4
  0
LINE
  8
0
 10
108.7
 20
44.4
 11
108.697
 21
44.2932
  0
LINE
  8
0
 10
108.697
 20
44.2932
 11
108.687
 21
44.1869
  0
LINE
  8
0
 10
108.687
 20
44.1869
 11
108.67
 21
44.0815
  0
LINE
  8
0
 10
108.67
 20
44.0815
 11
108.647
 21
43.9772
  0
LINE
  8
0
 10
108.647
 20
43.9772
 11
108.617
 21
43.8747
  0
LINE
  8
0
 10
108.617
 20
43.8747
 11
108.581
 21
43.7742
  0
LINE
  8
0
 10
108.581
 20
43.7742
 11
108.538
 21
43.6762
  0
LINE
  8
0
 10
108.538
 20
43.6762
 11
108.49
 21
43.581
  0
LINE
  8
0
 10
108.49
 20
43.581
 11
108.435
 21
43.4891
  0
LINE
  8
0
 10
108.435
 20
43.4891
 11
108.375
 21
43.4008
  0
LINE
  8
0
 10
108.375
 20
43.4008
 11
108.31
 21
43.3164
  0
LINE
  8
0
 10
108.31
 20
43.3164
 11
108.239
 21
43.2363
  0
LINE
  8
0
 10
108.239
 20
43.2363
 11
108.164
 21
43.1608
  0
LINE
  8
0
 10
108.164
 20
43.1608
 11
108.084
 21
43.0901
  0
LINE
  8
0
 10
108.084
 20
43.0901
 11
107.999
 21
43.0247
  0
LINE
  8
0
 10
107.999
 20
43.0247
 11
107.911
 21
42.9646
  0
LINE
  8
0
 10
107.911
 20
42.9646
 11
107.819
 21
42.9103
  0
LINE
  8
0
 10
107.819
 20
42.9103
 11
107.724
 21
42.8618
  0
LINE
  8
0
 10
107.724
 20
42.8618
 11
107.626
 21
42.8194
  0
LINE
  8
0
 10
107.626
 20
42.8194
 11
107.525
 21
42.7832
  0
LINE
  8
0
 10
107.525
 20
42.7832
 11
107.423
 21
42.7534
  0
LINE
  8
0
 10
107.423
 20
42.7534
 11
107.319
 21
42.7301
  0
LINE
  8
0
 10
107.319
 20
42.7301
 11
107.213
 21
42.7134
  0
LINE
  8
0
 10
107.213
 20
42.7134
 11
107.107
 21
42.7034
  0
LINE
  8
0
 10
107.107
 20
42.7034
 11
107
 21
42.7
  0
LINE
  8
0
 10
142.667
 20
3.29999
 11
142.56
 21
3.30334
  0
LINE
  8
0
 10
142.56
 20
3.30334
 11
142.454
 21
3.3134
  0
LINE
  8
0
 10
142.454
 20
3.3134
 11
142.348
 21
3.33011
  0
LINE
  8
0
 10
142.348
 20
3.33011
 11
142.244
 21
3.35339
  0
LINE
  8
0
 10
142.244
 20
3.35339
 11
142.141
 21
3.38319
  0
LINE
  8
0
 10
142.141
 20
3.38319
 11
142.041
 21
3.41937
  0
LINE
  8
0
 10
142.041
 20
3.41937
 11
141.943
 21
3.46179
  0
LINE
  8
0
 10
141.943
 20
3.46179
 11
141.848
 21
3.51027
  0
LINE
  8
0
 10
141.848
 20
3.51027
 11
141.756
 21
3.56464
  0
LINE
  8
0
 10
141.756
 20
3.56464
 11
141.667
 21
3.62466
  0
LINE
  8
0
 10
141.667
 20
3.62466
 11
141.583
 21
3.69012
  0
LINE
  8
0
 10
141.583
 20
3.69012
 11
141.503
 21
3.76074
  0
LINE
  8
0
 10
141.503
 20
3.76074
 11
141.427
 21
3.83626
  0
LINE
  8
0
 10
141.427
 20
3.83626
 11
141.357
 21
3.91637
  0
LINE
  8
0
 10
141.357
 20
3.91637
 11
141.291
 21
4.00076
  0
LINE
  8
0
 10
141.291
 20
4.00076
 11
141.231
 21
4.08908
  0
LINE
  8
0
 10
141.231
 20
4.08908
 11
141.177
 21
4.18102
  0
LINE
  8
0
 10
141.177
 20
4.18102
 11
141.128
 21
4.27617
  0
LINE
  8
0
 10
141.128
 20
4.27617
 11
141.086
 21
4.37418
  0
LINE
  8
0
 10
141.086
 20
4.37418
 11
141.05
 21
4.47467
  0
LINE
  8
0
 10
141.05
 20
4.47467
 11
141.02
 21
4.57722
  0
LINE
  8
0
 10
141.02
 20
4.57722
 11
140.997
 21
4.68144
  0
LINE
  8
0
 10
140.997
 20
4.68144
 11
140.98
 21
4.78693
  0
LINE
  8
0
 10
140.98
 20
4.78693
 11
140.97
 21
4.89325
  0
LINE
  8
0
 10
140.97
 20
4.89325
 11
140.967
 21
5
  0
LINE
  8
0
 10
140.967
 20
5
 11
140.97
 21
5.10674
  0
LINE
  8
0
 10
140.97
 20
5.10674
 11
140.98
 21
5.21306
  0
LINE
  8
0
 10
140.98
 20
5.21306
 11
140.997
 21
5.31854
  0
LINE
  8
0
 10
140.997
 20
5.31854
 11
141.02
 21
5.42276
  0
LINE
  8
0
 10
141.02
 20
5.42276
 11
141.05
 21
5.52531
  0
LINE
  8
0
 10
141.05
 20
5.52531
 11
141.086
 21
5.62581
  0
LINE
  8
0
 10
141.086
 20
5.62581
 11
141.128
 21
5.72382
  0
LINE
  8
0
 10
141.128
 20
5.72382
 11
141.177
 21
5.81897
  0
LINE
  8
0
 10
141.177
 20
5.81897
 11
141.231
 21
5.9109
  0
LINE
  8
0
 10
141.231
 20
5.9109
 11
141.291
 21
5.99922
  0
LINE
  8
0
 10
141.291
 20
5.99922
 11
141.357
 21
6.08362
  0
LINE
  8
0
 10
141.357
 20
6.08362
 11
141.427
 21
6.16373
  0
LINE
  8
0
 10
141.427
 20
6.16373
 11
141.503
 21
6.23924
  0
LINE
  8
0
 10
141.503
 20
6.23924
 11
141.583
 21
6.30986
  0
LINE
  8
0
 10
141.583
 20
6.30986
 11
141.667
 21
6.37532
  0
LINE
  8
0
 10
141.667
 20
6.37532
 11
141.756
 21
6.43535
  0
LINE
  8
0
 10
141.756
 20
6.43535
 11
141.848
 21
6.48972
  0
LINE
  8
0
 10
141.848
 20
6.48972
 11
141.943
 21
6.53819
  0
LINE
  8
0
 10
141.943
 20
6.53819
 11
142.041
 21
6.58061
  0
LINE
  8
0
 10
142.041
 20
6.58061
 11
142.141
 21
6.61679
  0
LINE
  8
0
 10
142.141
 20
6.61679
 11
142.244
 21
6.64659
  0
LINE
  8
0
 10
142.244
 20
6.64659
 11
142.348
 21
6.66988
  0
LINE
  8
0
 10
142.348
 20
6.66988
 11
142.454
 21
6.68658
  0
LINE
  8
0
 10
142.454
 20
6.68658
 11
142.56
 21
6.69664
  0
LINE
  8
0
 10
142.56
 20
6.69664
 11
142.667
 21
6.7
  0
LINE
  8
0
 10
142.667
 20
6.7
 11
142.773
 21
6.69664
  0
LINE
  8
0
 10
142.773
 20
6.69664
 11
142.88
 21
6.68658
  0
LINE
  8
0
 10
142.88
 20
6.68658
 11
142.985
 21
6.66988
  0
LINE
  8
0
 10
142.985
 20
6.66988
 11
143.089
 21
6.64659
  0
LINE
  8
0
 10
143.089
 20
6.64659
 11
143.192
 21
6.61679
  0
LINE
  8
0
 10
143.192
 20
6.61679
 11
143.292
 21
6.58061
  0
LINE
  8
0
 10
143.292
 20
6.58061
 11
143.39
 21
6.53819
  0
LINE
  8
0
 10
143.39
 20
6.53819
 11
143.486
 21
6.48972
  0
LINE
  8
0
 10
143.486
 20
6.48972
 11
143.578
 21
6.43535
  0
LINE
  8
0
 10
143.578
 20
6.43535
 11
143.666
 21
6.37532
  0
LINE
  8
0
 10
143.666
 20
6.37532
 11
143.75
 21
6.30986
  0
LINE
  8
0
 10
143.75
 20
6.30986
 11
143.83
 21
6.23924
  0
LINE
  8
0
 10
143.83
 20
6.23924
 11
143.906
 21
6.16373
  0
LINE
  8
0
 10
143.906
 20
6.16373
 11
143.977
 21
6.08362
  0
LINE
  8
0
 10
143.977
 20
6.08362
 11
144.042
 21
5.99922
  0
LINE
  8
0
 10
144.042
 20
5.99922
 11
144.102
 21
5.9109
  0
LINE
  8
0
 10
144.102
 20
5.9109
 11
144.156
 21
5.81897
  0
LINE
  8
0
 10
144.156
 20
5.81897
 11
144.205
 21
5.72382
  0
LINE
  8
0
 10
144.205
 20
5.72382
 11
144.247
 21
5.62581
  0
LINE
  8
0
 10
144.247
 20
5.62581
 11
144.283
 21
5.52531
  0
LINE
  8
0
 10
144.283
 20
5.52531
 11
144.313
 21
5.42276
  0
LINE
  8
0
 10
144.313
 20
5.42276
 11
144.337
 21
5.31854
  0
LINE
  8
0
 10
144.337
 20
5.31854
 11
144.353
 21
5.21306
  0
LINE
  8
0
 10
144.353
 20
5.21306
 11
144.363
 21
5.10674
  0
LINE
  8
0
 10
144.363
 20
5.10674
 11
144.367
 21
5
  0
LINE
  8
0
 10
144.367
 20
5
 11
144.363
 21
4.89325
  0
LINE
  8
0
 10
144.363
 20
4.89325
 11
144.353
 21
4.78693
  0
LINE
  8
0
 10
144.353
 20
4.78693
 11
144.337
 21
4.68144
  0
LINE
  8
0
 10
144.337
 20
4.68144
 11
144.313
 21
4.57722
  0
LINE
  8
0
 10
144.313
 20
4.57722
 11
144.283
 21
4.47467
  0
LINE
  8
0
 10
144.283
 20
4.47467
 11
144.247
 21
4.37418
  0
LINE
  8
0
 10
144.247
 20
4.37418
 11
144.205
 21
4.27617
  0
LINE
  8
0
 10
144.205
 20
4.27617
 11
144.156
 21
4.18102
  0
LINE
  8
0
 10
144.156
 20
4.18102
 11
144.102
 21
4.08908
  0
LINE
  8
0
 10
144.102
 20
4.08908
 11
144.042
 21
4.00076
  0
LINE
  8
0
 10
144.042
 20
4.00076
 11
143.977
 21
3.91637
  0
LINE
  8
0
 10
143.977
 20
3.91637
 11
143.906
 21
3.83626
  0
LINE
  8
0
 10
143.906
 20
3.83626
 11
143.83
 21
3.76074
  0
LINE
  8
0
 10
143.83
 20
3.76074
 11
143.75
 21
3.69012
  0
LINE
  8
0
 10
143.75
 20
3.69012
 11
143.666
 21
3.62466
  0
LINE
  8
0
 10
143.666
 20
3.62466
 11
143.578
 21
3.56464
  0
LINE
  8
0
 10
143.578
 20
3.56464
 11
143.486
 21
3.51027
  0
LINE
  8
0
 10
143.486
 20
3.51027
 11
143.39
 21
3.46179
  0
LINE
  8
0
 10
143.39
 20
3.46179
 11
143.292
 21
3.41937
  0
LINE
  8
0
 10
143.292
 20
3.41937
 11
143.192
 21
3.38319
  0
LINE
  8
0
 10
143.192
 20
3.38319
 11
143.089
 21
3.35339
  0
LINE
  8
0
 10
143.089
 20
3.35339
 11
142.985
 21
3.33011
  0
LINE
  8
0
 10
142.985
 20
3.33011
 11
142.88
 21
3.3134
  0
LINE
  8
0
 10
142.88
 20
3.3134
 11
142.773
 21
3.30334
  0
LINE
  8
0
 10
142.773
 20
3.30334
 11
142.667
 21
3.29999
  0
LINE
  8
0
 10
71.3333
 20
3.29999
 11
71.2266
 21
3.30334
  0
LINE
  8
0
 10
71.2266
 20
3.30334
 11
71.1203
 21
3.3134
  0
LINE
  8
0
 10
71.1203
 20
3.3134
 11
71.0148
 21
3.33011
  0
LINE
  8
0
 10
71.0148
 20
3.33011
 11
70.9106
 21
3.35339
  0
LINE
  8
0
 10
70.9106
 20
3.35339
 11
70.808
 21
3.38319
  0
LINE
  8
0
 10
70.808
 20
3.38319
 11
70.7075
 21
3.41937
  0
LINE
  8
0
 10
70.7075
 20
3.41937
 11
70.6095
 21
3.46179
  0
LINE
  8
0
 10
70.6095
 20
3.46179
 11
70.5143
 21
3.51027
  0
LINE
  8
0
 10
70.5143
 20
3.51027
 11
70.4224
 21
3.56464
  0
LINE
  8
0
 10
70.4224
 20
3.56464
 11
70.3341
 21
3.62466
  0
LINE
  8
0
 10
70.3341
 20
3.62466
 11
70.2497
 21
3.69012
  0
LINE
  8
0
 10
70.2497
 20
3.69012
 11
70.1696
 21
3.76074
  0
LINE
  8
0
 10
70.1696
 20
3.76074
 11
70.0941
 21
3.83626
  0
LINE
  8
0
 10
70.0941
 20
3.83626
 11
70.0235
 21
3.91637
  0
LINE
  8
0
 10
70.0235
 20
3.91637
 11
69.958
 21
4.00076
  0
LINE
  8
0
 10
69.958
 20
4.00076
 11
69.898
 21
4.08908
  0
LINE
  8
0
 10
69.898
 20
4.08908
 11
69.8436
 21
4.18102
  0
LINE
  8
0
 10
69.8436
 20
4.18102
 11
69.7951
 21
4.27617
  0
LINE
  8
0
 10
69.7951
 20
4.27617
 11
69.7527
 21
4.37418
  0
LINE
  8
0
 10
69.7527
 20
4.37418
 11
69.7165
 21
4.47467
  0
LINE
  8
0
 10
69.7165
 20
4.47467
 11
69.6867
 21
4.57722
  0
LINE
  8
0
 10
69.6867
 20
4.57722
 11
69.6634
 21
4.68144
  0
LINE
  8
0
 10
69.6634
 20
4.68144
 11
69.6467
 21
4.78693
  0
LINE
  8
0
 10
69.6467
 20
4.78693
 11
69.6367
 21
4.89325
  0
LINE
  8
0
 10
69.6367
 20
4.89325
 11
69.6333
 21
5
  0
LINE
  8
0
 10
69.6333
 20
5
 11
69.6367
 21
5.10674
  0
LINE
  8
0
 10
69.6367
 20
5.10674
 11
69.6467
 21
5.21306
  0
LINE
  8
0
 10
69.6467
 20
5.21306
 11
69.6634
 21
5.31854
  0
LINE
  8
0
 10
69.6634
 20
5.31854
 11
69.6867
 21
5.42276
  0
LINE
  8
0
 10
69.6867
 20
5.42276
 11
69.7165
 21
5.52531
  0
LINE
  8
0
 10
69.7165
 20
5.52531
 11
69.7527
 21
5.62581
  0
LINE
  8
0
 10
69.7527
 20
5.62581
 11
69.7951
 21
5.72382
  0
LINE
  8
0
 10
69.7951
 20
5.72382
 11
69.8436
 21
5.81897
  0
LINE
  8
0
 10
69.8436
 20
5.81897
 11
69.898
 21
5.9109
  0
LINE
  8
0
 10
69.898
 20
5.9109
 11
69.958
 21
5.99922
  0
LINE
  8
0
 10
69.958
 20
5.99922
 11
70.0235
 21
6.08362
  0
LINE
  8
0
 10
70.0235
 20
6.08362
 11
70.0941
 21
6.16373
  0
LINE
  8
0
 10
70.0941
 20
6.16373
 11
70.1696
 21
6.23924
  0
LINE
  8
0
 10
70.1696
 20
6.23924
 11
70.2497
 21
6.30986
  0
LINE
  8
0
 10
70.2497
 20
6.30986
 11
70.3341
 21
6.37532
  0
LINE
  8
0
 10
70.3341
 20
6.37532
 11
70.4224
 21
6.43535
  0
LINE
  8
0
 10
70.4224
 20
6.43535
 11
70.5143
 21
6.48972
  0
LINE
  8
0
 10
70.5143
 20
6.48972
 11
70.6095
 21
6.53819
  0
LINE
  8
0
 10
70.6095
 20
6.53819
 11
70.7075
 21
6.58061
  0
LINE
  8
0
 10
70.7075
 20
6.58061
 11
70.808
 21
6.61679
  0
LINE
  8
0
 10
70.808
 20
6.61679
 11
70.9106
 21
6.64659
  0
LINE
  8
0
 10
70.9106
 20
6.64659
 11
71.0148
 21
6.66988
  0
LINE
  8
0
 10
71.0148
 20
6.66988
 11
71.1203
 21
6.68658
  0
LINE
  8
0
 10
71.1203
 20
6.68658
 11
71.2266
 21
6.69664
  0
LINE
  8
0
 10
71.2266
 20
6.69664
 11
71.3333
 21
6.7
  0
LINE
  8
0
 10
71.3333
 20
6.7
 11
71.4401
 21
6.69664
  0
LINE
  8
0
 10
71.4401
 20
6.69664
 11
71.5464
 21
6.68658
  0
LINE
  8
0
 10
71.5464
 20
6.68658
 11
71.6519
 21
6.66988
  0
LINE
  8
0
 10
71.6519
 20
6.66988
 11
71.7561
 21
6.64659
  0
LINE
  8
0
 10
71.7561
 20
6.64659
 11
71.8587
 21
6.61679
  0
LINE
  8
0
 10
71.8587
 20
6.61679
 11
71.9591
 21
6.58061
  0
LINE
  8
0
 10
71.9591
 20
6.58061
 11
72.0571
 21
6.53819
  0
LINE
  8
0
 10
72.0571
 20
6.53819
 11
72.1523
 21
6.48972
  0
LINE
  8
0
 10
72.1523
 20
6.48972
 11
72.2442
 21
6.43535
  0
LINE
  8
0
 10
72.2442
 20
6.43535
 11
72.3326
 21
6.37532
  0
LINE
  8
0
 10
72.3326
 20
6.37532
 11
72.4169
 21
6.30986
  0
LINE
  8
0
 10
72.4169
 20
6.30986
 11
72.4971
 21
6.23924
  0
LINE
  8
0
 10
72.4971
 20
6.23924
 11
72.5726
 21
6.16373
  0
LINE
  8
0
 10
72.5726
 20
6.16373
 11
72.6432
 21
6.08362
  0
LINE
  8
0
 10
72.6432
 20
6.08362
 11
72.7086
 21
5.99922
  0
LINE
  8
0
 10
72.7086
 20
5.99922
 11
72.7687
 21
5.9109
  0
LINE
  8
0
 10
72.7687
 20
5.9109
 11
72.823
 21
5.81897
  0
LINE
  8
0
 10
72.823
 20
5.81897
 11
72.8715
 21
5.72382
  0
LINE
  8
0
 10
72.8715
 20
5.72382
 11
72.9139
 21
5.62581
  0
LINE
  8
0
 10
72.9139
 20
5.62581
 11
72.9501
 21
5.52531
  0
LINE
  8
0
 10
72.9501
 20
5.52531
 11
72.9799
 21
5.42276
  0
LINE
  8
0
 10
72.9799
 20
5.42276
 11
73.0032
 21
5.31854
  0
LINE
  8
0
 10
73.0032
 20
5.31854
 11
73.0199
 21
5.21306
  0
LINE
  8
0
 10
73.0199
 20
5.21306
 11
73.03
 21
5.10674
  0
LINE
  8
0
 10
73.03
 20
5.10674
 11
73.0333
 21
5
  0
LINE
  8
0
 10
73.0333
 20
5
 11
73.03
 21
4.89325
  0
LINE
  8
0
 10
73.03
 20
4.89325
 11
73.0199
 21
4.78693
  0
LINE
  8
0
 10
73.0199
 20
4.78693
 11
73.0032
 21
4.68144
  0
LINE
  8
0
 10
73.0032
 20
4.68144
 11
72.9799
 21
4.57722
  0
LINE
  8
0
 10
72.9799
 20
4.57722
 11
72.9501
 21
4.47467
  0
LINE
  8
0
 10
72.9501
 20
4.47467
 11
72.9139
 21
4.37418
  0
LINE
  8
0
 10
72.9139
 20
4.37418
 11
72.8715
 21
4.27617
  0
LINE
  8
0
 10
72.8715
 20
4.27617
 11
72.823
 21
4.18102
  0
LINE
  8
0
 10
72.823
 20
4.18102
 11
72.7687
 21
4.08908
  0
LINE
  8
0
 10
72.7687
 20
4.08908
 11
72.7086
 21
4.00076
  0
LINE
  8
0
 10
72.7086
 20
4.00076
 11
72.6432
 21
3.91637
  0
LINE
  8
0
 10
72.6432
 20
3.91637
 11
72.5726
 21
3.83626
  0
LINE
  8
0
 10
72.5726
 20
3.83626
 11
72.4971
 21
3.76074
  0
LINE
  8
0
 10
72.4971
 20
3.76074
 11
72.4169
 21
3.69012
  0
LINE
  8
0
 10
72.4169
 20
3.69012
 11
72.3326
 21
3.62466
  0
LINE
  8
0
 10
72.3326
 20
3.62466
 11
72.2442
 21
3.56464
  0
LINE
  8
0
 10
72.2442
 20
3.56464
 11
72.1523
 21
3.51027
  0
LINE
  8
0
 10
72.1523
 20
3.51027
 11
72.0571
 21
3.46179
  0
LINE
  8
0
 10
72.0571
 20
3.46179
 11
71.9591
 21
3.41937
  0
LINE
  8
0
 10
71.9591
 20
3.41937
 11
71.8587
 21
3.38319
  0
LINE
  8
0
 10
71.8587
 20
3.38319
 11
71.7561
 21
3.35339
  0
LINE
  8
0
 10
71.7561
 20
3.35339
 11
71.6519
 21
3.33011
  0
LINE
  8
0
 10
71.6519
 20
3.33011
 11
71.5464
 21
3.3134
  0
LINE
  8
0
 10
71.5464
 20
3.3134
 11
71.4401
 21
3.30334
  0
LINE
  8
0
 10
71.4401
 20
3.30334
 11
71.3333
 21
3.29999
  0
LINE
  8
0
 10
107
 20
3.29999
 11
106.893
 21
3.30334
  0
LINE
  8
0
 10
106.893
 20
3.30334
 11
106.787
 21
3.3134
  0
LINE
  8
0
 10
106.787
 20
3.3134
 11
106.681
 21
3.33011
  0
LINE
  8
0
 10
106.681
 20
3.33011
 11
106.577
 21
3.35339
  0
LINE
  8
0
 10
106.577
 20
3.35339
 11
106.475
 21
3.38319
  0
LINE
  8
0
 10
106.475
 20
3.38319
 11
106.374
 21
3.41937
  0
LINE
  8
0
 10
106.374
 20
3.41937
 11
106.276
 21
3.46179
  0
LINE
  8
0
 10
106.276
 20
3.46179
 11
106.181
 21
3.51027
  0
LINE
  8
0
 10
106.181
 20
3.51027
 11
106.089
 21
3.56464
  0
LINE
  8
0
 10
106.089
 20
3.56464
 11
106.001
 21
3.62466
  0
LINE
  8
0
 10
106.001
 20
3.62466
 11
105.916
 21
3.69012
  0
LINE
  8
0
 10
105.916
 20
3.69012
 11
105.836
 21
3.76074
  0
LINE
  8
0
 10
105.836
 20
3.76074
 11
105.761
 21
3.83626
  0
LINE
  8
0
 10
105.761
 20
3.83626
 11
105.69
 21
3.91637
  0
LINE
  8
0
 10
105.69
 20
3.91637
 11
105.625
 21
4.00076
  0
LINE
  8
0
 10
105.625
 20
4.00076
 11
105.565
 21
4.08908
  0
LINE
  8
0
 10
105.565
 20
4.08908
 11
105.51
 21
4.18102
  0
LINE
  8
0
 10
105.51
 20
4.18102
 11
105.462
 21
4.27617
  0
LINE
  8
0
 10
105.462
 20
4.27617
 11
105.419
 21
4.37418
  0
LINE
  8
0
 10
105.419
 20
4.37418
 11
105.383
 21
4.47467
  0
LINE
  8
0
 10
105.383
 20
4.47467
 11
105.353
 21
4.57722
  0
LINE
  8
0
 10
105.353
 20
4.57722
 11
105.33
 21
4.68144
  0
LINE
  8
0
 10
105.33
 20
4.68144
 11
105.313
 21
4.78693
  0
LINE
  8
0
 10
105.313
 20
4.78693
 11
105.303
 21
4.89325
  0
LINE
  8
0
 10
105.303
 20
4.89325
 11
105.3
 21
5
  0
LINE
  8
0
 10
105.3
 20
5
 11
105.303
 21
5.10674
  0
LINE
  8
0
 10
105.303
 20
5.10674
 11
105.313
 21
5.21306
  0
LINE
  8
0
 10
105.313
 20
5.21306
 11
105.33
 21
5.31854
  0
LINE
  8
0
 10
105.33
 20
5.31854
 11
105.353
 21
5.42276
  0
LINE
  8
0
 10
105.353
 20
5.42276
 11
105.383
 21
5.52531
  0
LINE
  8
0
 10
105.383
 20
5.52531
 11
105.419
 21
5.62581
  0
LINE
  8
0
 10
105.419
 20
5.62581
 11
105.462
 21
5.72382
  0
LINE
  8
0
 10
105.462
 20
5.72382
 11
105.51
 21
5.81897
  0
LINE
  8
0
 10
105.51
 20
5.81897
 11
105.565
 21
5.9109
  0
LINE
  8
0
 10
105.565
 20
5.9109
 11
105.625
 21
5.99922
  0
LINE
  8
0
 10
105.625
 20
5.99922
 11
105.69
 21
6.08362
  0
LINE
  8
0
 10
105.69
 20
6.08362
 11
105.761
 21
6.16373
  0
LINE
  8
0
 10
105.761
 20
6.16373
 11
105.836
 21
6.23924
  0
LINE
  8
0
 10
105.836
 20
6.23924
 11
105.916
 21
6.30986
  0
LINE
  8
0
 10
105.916
 20
6.30986
 11
106.001
 21
6.37532
  0
LINE
  8
0
 10
106.001
 20
6.37532
 11
106.089
 21
6.43535
  0
LINE
  8
0
 10
106.089
 20
6.43535
 11
106.181
 21
6.48972
  0
LINE
  8
0
 10
106.181
 20
6.48972
 11
106.276
 21
6.53819
  0
LINE
  8
0
 10
106.276
 20
6.53819
 11
106.374
 21
6.58061
  0
LINE
  8
0
 10
106.374
 20
6.58061
 11
106.475
 21
6.61679
  0
LINE
  8
0
 10
106.475
 20
6.61679
 11
106.577
 21
6.64659
  0
LINE
  8
0
 10
106.577
 20
6.64659
 11
106.681
 21
6.66988
  0
LINE
  8
0
 10
106.681
 20
6.66988
 11
106.787
 21
6.68658
  0
LINE
  8
0
 10
106.787
 20
6.68658
 11
106.893
 21
6.69664
  0
LINE
  8
0
 10
106.893
 20
6.69664
 11
107
 21
6.7
  0
LINE
  8
0
 10
107
 20
6.7
 11
107.107
 21
6.69664
  0
LINE
  8
0
 10
107.107
 20
6.69664
 11
107.213
 21
6.68658
  0
LINE
  8
0
 10
107.213
 20
6.68658
 11
107.319
 21
6.66988
  0
LINE
  8
0
 10
107.319
 20
6.66988
 11
107.423
 21
6.64659
  0
LINE
  8
0
 10
107.423
 20
6.64659
 11
107.525
 21
6.61679
  0
LINE
  8
0
 10
107.525
 20
6.61679
 11
107.626
 21
6.58061
  0
LINE
  8
0
 10
107.626
 20
6.58061
 11
107.724
 21
6.53819
  0
LINE
  8
0
 10
107.724
 20
6.53819
 11
107.819
 21
6.48972
  0
LINE
  8
0
 10
107.819
 20
6.48972
 11
107.911
 21
6.43535
  0
LINE
  8
0
 10
107.911
 20
6.43535
 11
107.999
 21
6.37532
  0
LINE
  8
0
 10
107.999
 20
6.37532
 11
108.084
 21
6.30986
  0
LINE
  8
0
 10
108.084
 20
6.30986
 11
108.164
 21
6.23924
  0
LINE
  8
0
 10
108.164
 20
6.23924
 11
108.239
 21
6.16373
  0
LINE
  8
0
 10
108.239
 20
6.16373
 11
108.31
 21
6.08362
  0
LINE
  8
0
 10
108.31
 20
6.08362
 11
108.375
 21
5.99922
  0
LINE
  8
0
 10
108.375
 20
5.99922
 11
108.435
 21
5.9109
  0
LINE
  8
0
 10
108.435
 20
5.9109
 11
108.49
 21
5.81897
  0
LINE
  8
0
 10
108.49
 20
5.81897
 11
108.538
 21
5.72382
  0
LINE
  8
0
 10
108.538
 20
5.72382
 11
108.581
 21
5.62581
  0
LINE
  8
0
 10
108.581
 20
5.62581
 11
108.617
 21
5.52531
  0
LINE
  8
0
 10
108.617
 20
5.52531
 11
108.647
 21
5.42276
  0
LINE
  8
0
 10
108.647
 20
5.42276
 11
108.67
 21
5.31854
  0
LINE
  8
0
 10
108.67
 20
5.31854
 11
108.687
 21
5.21306
  0
LINE
  8
0
 10
108.687
 20
5.21306
 11
108.697
 21
5.10674
  0
LINE
  8
0
 10
108.697
 20
5.10674
 11
108.7
 21
5
  0
LINE
  8
0
 10
108.7
 20
5
 11
108.697
 21
4.89325
  0
LINE
  8
0
 10
108.697
 20
4.89325
 11
108.687
 21
4.78693
  0
LINE
  8
0
 10
108.687
 20
4.78693
 11
108.67
 21
4.68144
  0
LINE
  8
0
 10
108.67
 20
4.68144
 11
108.647
 21
4.57722
  0
LINE
  8
0
 10
108.647
 20
4.57722
 11
108.617
 21
4.47467
  0
LINE
  8
0
 10
108.617
 20
4.47467
 11
108.581
 21
4.37418
  0
LINE
  8
0
 10
108.581
 20
4.37418
 11
108.538
 21
4.27617
  0
LINE
  8
0
 10
108.538
 20
4.27617
 11
108.49
 21
4.18102
  0
LINE
  8
0
 10
108.49
 20
4.18102
 11
108.435
 21
4.08908
  0
LINE
  8
0
 10
108.435
 20
4.08908
 11
108.375
 21
4.00076
  0
LINE
  8
0
 10
108.375
 20
4.00076
 11
108.31
 21
3.91637
  0
LINE
  8
0
 10
108.31
 20
3.91637
 11
108.239
 21
3.83626
  0
LINE
  8
0
 10
108.239
 20
3.83626
 11
108.164
 21
3.76074
  0
LINE
  8
0
 10
108.164
 20
3.76074
 11
108.084
 21
3.69012
  0
LINE
  8
0
 10
108.084
 20
3.69012
 11
107.999
 21
3.62466
  0
LINE
  8
0
 10
107.999
 20
3.62466
 11
107.911
 21
3.56464
  0
LINE
  8
0
 10
107.911
 20
3.56464
 11
107.819
 21
3.51027
  0
LINE
  8
0
 10
107.819
 20
3.51027
 11
107.724
 21
3.46179
  0
LINE
  8
0
 10
107.724
 20
3.46179
 11
107.626
 21
3.41937
  0
LINE
  8
0
 10
107.626
 20
3.41937
 11
107.525
 21
3.38319
  0
LINE
  8
0
 10
107.525
 20
3.38319
 11
107.423
 21
3.35339
  0
LINE
  8
0
 10
107.423
 20
3.35339
 11
107.319
 21
3.33011
  0
LINE
  8
0
 10
107.319
 20
3.33011
 11
107.213
 21
3.3134
  0
LINE
  8
0
 10
107.213
 20
3.3134
 11
107.107
 21
3.30334
  0
LINE
  8
0
 10
107.107
 20
3.30334
 11
107
 21
3.29999
  0
LINE
  8
0
 10
2.7
 20
1
 11
2.59325
 21
1.00334
  0
LINE
  8
0
 10
2.59325
 20
1.00334
 11
2.48692
 21
1.0134
  0
LINE
  8
0
 10
2.48692
 20
1.0134
 11
2.38144
 21
1.03011
  0
LINE
  8
0
 10
2.38144
 20
1.03011
 11
2.27722
 21
1.05341
  0
LINE
  8
0
 10
2.27722
 20
1.05341
 11
2.17467
 21
1.08319
  0
LINE
  8
0
 10
2.17467
 20
1.08319
 11
2.07419
 21
1.11937
  0
LINE
  8
0
 10
2.07419
 20
1.11937
 11
1.97617
 21
1.16179
  0
LINE
  8
0
 10
1.97617
 20
1.16179
 11
1.88101
 21
1.21027
  0
LINE
  8
0
 10
1.88101
 20
1.21027
 11
1.78909
 21
1.26463
  0
LINE
  8
0
 10
1.78909
 20
1.26463
 11
1.70076
 21
1.32466
  0
LINE
  8
0
 10
1.70076
 20
1.32466
 11
1.61638
 21
1.39012
  0
LINE
  8
0
 10
1.61638
 20
1.39012
 11
1.53625
 21
1.46074
  0
LINE
  8
0
 10
1.53625
 20
1.46074
 11
1.46074
 21
1.53625
  0
LINE
  8
0
 10
1.46074
 20
1.53625
 11
1.39012
 21
1.61638
  0
LINE
  8
0
 10
1.39012
 20
1.61638
 11
1.32466
 21
1.70076
  0
LINE
  8
0
 10
1.32466
 20
1.70076
 11
1.26463
 21
1.78909
  0
LINE
  8
0
 10
1.26463
 20
1.78909
 11
1.21027
 21
1.88101
  0
LINE
  8
0
 10
1.21027
 20
1.88101
 11
1.16179
 21
1.97617
  0
LINE
  8
0
 10
1.16179
 20
1.97617
 11
1.11937
 21
2.07419
  0
LINE
  8
0
 10
1.11937
 20
2.07419
 11
1.08319
 21
2.17467
  0
LINE
  8
0
 10
1.08319
 20
2.17467
 11
1.05341
 21
2.27722
  0
LINE
  8
0
 10
1.05341
 20
2.27722
 11
1.03011
 21
2.38144
  0
LINE
  8
0
 10
1.03011
 20
2.38144
 11
1.0134
 21
2.48692
  0
LINE
  8
0
 10
1.0134
 20
2.48692
 11
1.00334
 21
2.59325
  0
LINE
  8
0
 10
1.00334
 20
2.59325
 11
1
 21
2.7
  0
LINE
  8
0
 10
1
 20
2.7
 11
1.00334
 21
2.80673
  0
LINE
  8
0
 10
1.00334
 20
2.80673
 11
1.0134
 21
2.91306
  0
LINE
  8
0
 10
1.0134
 20
2.91306
 11
1.03011
 21
3.01854
  0
LINE
  8
0
 10
1.03011
 20
3.01854
 11
1.05341
 21
3.12277
  0
LINE
  8
0
 10
1.05341
 20
3.12277
 11
1.08319
 21
3.22533
  0
LINE
  8
0
 10
1.08319
 20
3.22533
 11
1.11937
 21
3.32581
  0
LINE
  8
0
 10
1.11937
 20
3.32581
 11
1.16179
 21
3.42381
  0
LINE
  8
0
 10
1.16179
 20
3.42381
 11
1.21027
 21
3.51897
  0
LINE
  8
0
 10
1.21027
 20
3.51897
 11
1.26463
 21
3.6109
  0
LINE
  8
0
 10
1.26463
 20
3.6109
 11
1.32466
 21
3.69923
  0
LINE
  8
0
 10
1.32466
 20
3.69923
 11
1.39012
 21
3.78362
  0
LINE
  8
0
 10
1.39012
 20
3.78362
 11
1.46074
 21
3.86372
  0
LINE
  8
0
 10
1.46074
 20
3.86372
 11
1.53625
 21
3.93924
  0
LINE
  8
0
 10
1.53625
 20
3.93924
 11
1.61638
 21
4.00987
  0
LINE
  8
0
 10
1.61638
 20
4.00987
 11
1.70076
 21
4.07532
  0
LINE
  8
0
 10
1.70076
 20
4.07532
 11
1.78909
 21
4.13535
  0
LINE
  8
0
 10
1.78909
 20
4.13535
 11
1.88101
 21
4.18971
  0
LINE
  8
0
 10
1.88101
 20
4.18971
 11
1.97617
 21
4.2382
  0
LINE
  8
0
 10
1.97617
 20
4.2382
 11
2.07419
 21
4.28061
  0
LINE
  8
0
 10
2.07419
 20
4.28061
 11
2.17467
 21
4.31679
  0
LINE
  8
0
 10
2.17467
 20
4.31679
 11
2.27722
 21
4.34659
  0
LINE
  8
0
 10
2.27722
 20
4.34659
 11
2.38144
 21
4.36989
  0
LINE
  8
0
 10
2.38144
 20
4.36989
 11
2.48692
 21
4.38658
  0
LINE
  8
0
 10
2.48692
 20
4.38658
 11
2.59325
 21
4.39664
  0
LINE
  8
0
 10
2.59325
 20
4.39664
 11
2.7
 21
4.39999
  0
LINE
  8
0
 10
2.7
 20
4.39999
 11
2.80673
 21
4.39664
  0
LINE
  8
0
 10
2.80673
 20
4.39664
 11
2.91306
 21
4.38658
  0
LINE
  8
0
 10
2.91306
 20
4.38658
 11
3.01854
 21
4.36989
  0
LINE
  8
0
 10
3.01854
 20
4.36989
 11
3.12277
 21
4.34659
  0
LINE
  8
0
 10
3.12277
 20
4.34659
 11
3.22533
 21
4.31679
  0
LINE
  8
0
 10
3.22533
 20
4.31679
 11
3.32581
 21
4.28061
  0
LINE
  8
0
 10
3.32581
 20
4.28061
 11
3.42381
 21
4.2382
  0
LINE
  8
0
 10
3.42381
 20
4.2382
 11
3.51897
 21
4.18971
  0
LINE
  8
0
 10
3.51897
 20
4.18971
 11
3.6109
 21
4.13535
  0
LINE
  8
0
 10
3.6109
 20
4.13535
 11
3.69923
 21
4.07532
  0
LINE
  8
0
 10
3.69923
 20
4.07532
 11
3.78362
 21
4.00987
  0
LINE
  8
0
 10
3.78362
 20
4.00987
 11
3.86372
 21
3.93924
  0
LINE
  8
0
 10
3.86372
 20
3.93924
 11
3.93924
 21
3.86372
  0
LINE
  8
0
 10
3.93924
 20
3.86372
 11
4.00987
 21
3.78362
  0
LINE
  8
0
 10
4.00987
 20
3.78362
 11
4.07532
 21
3.69923
  0
LINE
  8
0
 10
4.07532
 20
3.69923
 11
4.13535
 21
3.6109
  0
LINE
  8
0
 10
4.13535
 20
3.6109
 11
4.18971
 21
3.51897
  0
LINE
  8
0
 10
4.18971
 20
3.51897
 11
4.2382
 21
3.42381
  0
LINE
  8
0
 10
4.2382
 20
3.42381
 11
4.28061
 21
3.32581
  0
LINE
  8
0
 10
4.28061
 20
3.32581
 11
4.31679
 21
3.22533
  0
LINE
  8
0
 10
4.31679
 20
3.22533
 11
4.34659
 21
3.12277
  0
LINE
  8
0
 10
4.34659
 20
3.12277
 11
4.36989
 21
3.01854
  0
LINE
  8
0
 10
4.36989
 20
3.01854
 11
4.38658
 21
2.91306
  0
LINE
  8
0
 10
4.38658
 20
2.91306
 11
4.39664
 21
2.80673
  0
LINE
  8
0
 10
4.39664
 20
2.80673
 11
4.39999
 21
2.7
  0
LINE
  8
0
 10
4.39999
 20
2.7
 11
4.39664
 21
2.59325
  0
LINE
  8
0
 10
4.39664
 20
2.59325
 11
4.38658
 21
2.48692
  0
LINE
  8
0
 10
4.38658
 20
2.48692
 11
4.36989
 21
2.38144
  0
LINE
  8
0
 10
4.36989
 20
2.38144
 11
4.34659
 21
2.27722
  0
LINE
  8
0
 10
4.34659
 20
2.27722
 11
4.31679
 21
2.17467
  0
LINE
  8
0
 10
4.31679
 20
2.17467
 11
4.28061
 21
2.07419
  0
LINE
  8
0
 10
4.28061
 20
2.07419
 11
4.2382
 21
1.97617
  0
LINE
  8
0
 10
4.2382
 20
1.97617
 11
4.18971
 21
1.88101
  0
LINE
  8
0
 10
4.18971
 20
1.88101
 11
4.13535
 21
1.78909
  0
LINE
  8
0
 10
4.13535
 20
1.78909
 11
4.07532
 21
1.70076
  0
LINE
  8
0
 10
4.07532
 20
1.70076
 11
4.00987
 21
1.61638
  0
LINE
  8
0
 10
4.00987
 20
1.61638
 11
3.93924
 21
1.53625
  0
LINE
  8
0
 10
3.93924
 20
1.53625
 11
3.86372
 21
1.46074
  0
LINE
  8
0
 10
3.86372
 20
1.46074
 11
3.78362
 21
1.39012
  0
LINE
  8
0
 10
3.78362
 20
1.39012
 11
3.69923
 21
1.32466
  0
LINE
  8
0
 10
3.69923
 20
1.32466
 11
3.6109
 21
1.26463
  0
LINE
  8
0
 10
3.6109
 20
1.26463
 11
3.51897
 21
1.21027
  0
LINE
  8
0
 10
3.51897
 20
1.21027
 11
3.42381
 21
1.16179
  0
LINE
  8
0
 10
3.42381
 20
1.16179
 11
3.32581
 21
1.11937
  0
LINE
  8
0
 10
3.32581
 20
1.11937
 11
3.22533
 21
1.08319
  0
LINE
  8
0
 10
3.22533
 20
1.08319
 11
3.12277
 21
1.05341
  0
LINE
  8
0
 10
3.12277
 20
1.05341
 11
3.01854
 21
1.03011
  0
LINE
  8
0
 10
3.01854
 20
1.03011
 11
2.91306
 21
1.0134
  0
LINE
  8
0
 10
2.91306
 20
1.0134
 11
2.80673
 21
1.00334
  0
LINE
  8
0
 10
2.80673
 20
1.00334
 11
2.7
 21
1
  0
LINE
  8
0
 10
211.3
 20
1
 11
211.193
 21
1.00334
  0
LINE
  8
0
 10
211.193
 20
1.00334
 11
211.087
 21
1.0134
  0
LINE
  8
0
 10
211.087
 20
1.0134
 11
210.981
 21
1.03011
  0
LINE
  8
0
 10
210.981
 20
1.03011
 11
210.877
 21
1.05341
  0
LINE
  8
0
 10
210.877
 20
1.05341
 11
210.775
 21
1.08319
  0
LINE
  8
0
 10
210.775
 20
1.08319
 11
210.674
 21
1.11937
  0
LINE
  8
0
 10
210.674
 20
1.11937
 11
210.576
 21
1.16179
  0
LINE
  8
0
 10
210.576
 20
1.16179
 11
210.481
 21
1.21027
  0
LINE
  8
0
 10
210.481
 20
1.21027
 11
210.389
 21
1.26463
  0
LINE
  8
0
 10
210.389
 20
1.26463
 11
210.301
 21
1.32466
  0
LINE
  8
0
 10
210.301
 20
1.32466
 11
210.216
 21
1.39012
  0
LINE
  8
0
 10
210.216
 20
1.39012
 11
210.136
 21
1.46074
  0
LINE
  8
0
 10
210.136
 20
1.46074
 11
210.061
 21
1.53625
  0
LINE
  8
0
 10
210.061
 20
1.53625
 11
209.99
 21
1.61638
  0
LINE
  8
0
 10
209.99
 20
1.61638
 11
209.925
 21
1.70076
  0
LINE
  8
0
 10
209.925
 20
1.70076
 11
209.865
 21
1.78909
  0
LINE
  8
0
 10
209.865
 20
1.78909
 11
209.81
 21
1.88101
  0
LINE
  8
0
 10
209.81
 20
1.88101
 11
209.762
 21
1.97617
  0
LINE
  8
0
 10
209.762
 20
1.97617
 11
209.719
 21
2.07419
  0
LINE
  8
0
 10
209.719
 20
2.07419
 11
209.683
 21
2.17467
  0
LINE
  8
0
 10
209.683
 20
2.17467
 11
209.653
 21
2.27722
  0
LINE
  8
0
 10
209.653
 20
2.27722
 11
209.63
 21
2.38144
  0
LINE
  8
0
 10
209.63
 20
2.38144
 11
209.613
 21
2.48692
  0
LINE
  8
0
 10
209.613
 20
2.48692
 11
209.603
 21
2.59325
  0
LINE
  8
0
 10
209.603
 20
2.59325
 11
209.6
 21
2.7
  0
LINE
  8
0
 10
209.6
 20
2.7
 11
209.603
 21
2.80673
  0
LINE
  8
0
 10
209.603
 20
2.80673
 11
209.613
 21
2.91306
  0
LINE
  8
0
 10
209.613
 20
2.91306
 11
209.63
 21
3.01854
  0
LINE
  8
0
 10
209.63
 20
3.01854
 11
209.653
 21
3.12277
  0
LINE
  8
0
 10
209.653
 20
3.12277
 11
209.683
 21
3.22533
  0
LINE
  8
0
 10
209.683
 20
3.22533
 11
209.719
 21
3.32581
  0
LINE
  8
0
 10
209.719
 20
3.32581
 11
209.762
 21
3.42381
  0
LINE
  8
0
 10
209.762
 20
3.42381
 11
209.81
 21
3.51897
  0
LINE
  8
0
 10
209.81
 20
3.51897
 11
209.865
 21
3.6109
  0
LINE
  8
0
 10
209.865
 20
3.6109
 11
209.925
 21
3.69923
  0
LINE
  8
0
 10
209.925
 20
3.69923
 11
209.99
 21
3.78362
  0
LINE
  8
0
 10
209.99
 20
3.78362
 11
210.061
 21
3.86372
  0
LINE
  8
0
 10
210.061
 20
3.86372
 11
210.136
 21
3.93924
  0
LINE
  8
0
 10
210.136
 20
3.93924
 11
210.216
 21
4.00987
  0
LINE
  8
0
 10
210.216
 20
4.00987
 11
210.301
 21
4.07532
  0
LINE
  8
0
 10
210.301
 20
4.07532
 11
210.389
 21
4.13535
  0
LINE
  8
0
 10
210.389
 20
4.13535
 11
210.481
 21
4.18971
  0
LINE
  8
0
 10
210.481
 20
4.18971
 11
210.576
 21
4.2382
  0
LINE
  8
0
 10
210.576
 20
4.2382
 11
210.674
 21
4.28061
  0
LINE
  8
0
 10
210.674
 20
4.28061
 11
210.775
 21
4.31679
  0
LINE
  8
0
 10
210.775
 20
4.31679
 11
210.877
 21
4.34659
  0
LINE
  8
0
 10
210.877
 20
4.34659
 11
210.981
 21
4.36989
  0
LINE
  8
0
 10
210.981
 20
4.36989
 11
211.087
 21
4.38658
  0
LINE
  8
0
 10
211.087
 20
4.38658
 11
211.193
 21
4.39664
  0
LINE
  8
0
 10
211.193
 20
4.39664
 11
211.3
 21
4.39999
  0
LINE
  8
0
 10
211.3
 20
4.39999
 11
211.407
 21
4.39664
  0
LINE
  8
0
 10
211.407
 20
4.39664
 11
211.513
 21
4.38658
  0
LINE
  8
0
 10
211.513
 20
4.38658
 11
211.619
 21
4.36989
  0
LINE
  8
0
 10
211.619
 20
4.36989
 11
211.723
 21
4.34659
  0
LINE
  8
0
 10
211.723
 20
4.34659
 11
211.825
 21
4.31679
  0
LINE
  8
0
 10
211.825
 20
4.31679
 11
211.926
 21
4.28061
  0
LINE
  8
0
 10
211.926
 20
4.28061
 11
212.024
 21
4.2382
  0
LINE
  8
0
 10
212.024
 20
4.2382
 11
212.119
 21
4.18971
  0
LINE
  8
0
 10
212.119
 20
4.18971
 11
212.211
 21
4.13535
  0
LINE
  8
0
 10
212.211
 20
4.13535
 11
212.299
 21
4.07532
  0
LINE
  8
0
 10
212.299
 20
4.07532
 11
212.384
 21
4.00987
  0
LINE
  8
0
 10
212.384
 20
4.00987
 11
212.464
 21
3.93924
  0
LINE
  8
0
 10
212.464
 20
3.93924
 11
212.539
 21
3.86372
  0
LINE
  8
0
 10
212.539
 20
3.86372
 11
212.61
 21
3.78362
  0
LINE
  8
0
 10
212.61
 20
3.78362
 11
212.675
 21
3.69923
  0
LINE
  8
0
 10
212.675
 20
3.69923
 11
212.735
 21
3.6109
  0
LINE
  8
0
 10
212.735
 20
3.6109
 11
212.79
 21
3.51897
  0
LINE
  8
0
 10
212.79
 20
3.51897
 11
212.838
 21
3.42381
  0
LINE
  8
0
 10
212.838
 20
3.42381
 11
212.881
 21
3.32581
  0
LINE
  8
0
 10
212.881
 20
3.32581
 11
212.917
 21
3.22533
  0
LINE
  8
0
 10
212.917
 20
3.22533
 11
212.947
 21
3.12277
  0
LINE
  8
0
 10
212.947
 20
3.12277
 11
212.97
 21
3.01854
  0
LINE
  8
0
 10
212.97
 20
3.01854
 11
212.987
 21
2.91306
  0
LINE
  8
0
 10
212.987
 20
2.91306
 11
212.997
 21
2.80673
  0
LINE
  8
0
 10
212.997
 20
2.80673
 11
213
 21
2.7
  0
LINE
  8
0
 10
213
 20
2.7
 11
212.997
 21
2.59325
  0
LINE
  8
0
 10
212.997
 20
2.59325
 11
212.987
 21
2.48692
  0
LINE
  8
0
 10
212.987
 20
2.48692
 11
212.97
 21
2.38144
  0
LINE
  8
0
 10
212.97
 20
2.38144
 11
212.947
 21
2.27722
  0
LINE
  8
0
 10
212.947
 20
2.27722
 11
212.917
 21
2.17467
  0
LINE
  8
0
 10
212.917
 20
2.17467
 11
212.881
 21
2.07419
  0
LINE
  8
0
 10
212.881
 20
2.07419
 11
212.838
 21
1.97617
  0
LINE
  8
0
 10
212.838
 20
1.97617
 11
212.79
 21
1.88101
  0
LINE
  8
0
 10
212.79
 20
1.88101
 11
212.735
 21
1.78909
  0
LINE
  8
0
 10
212.735
 20
1.78909
 11
212.675
 21
1.70076
  0
LINE
  8
0
 10
212.675
 20
1.70076
 11
212.61
 21
1.61638
  0
LINE
  8
0
 10
212.61
 20
1.61638
 11
212.539
 21
1.53625
  0
LINE
  8
0
 10
212.539
 20
1.53625
 11
212.464
 21
1.46074
  0
LINE
  8
0
 10
212.464
 20
1.46074
 11
212.384
 21
1.39012
  0
LINE
  8
0
 10
212.384
 20
1.39012
 11
212.299
 21
1.32466
  0
LINE
  8
0
 10
212.299
 20
1.32466
 11
212.211
 21
1.26463
  0
LINE
  8
0
 10
212.211
 20
1.26463
 11
212.119
 21
1.21027
  0
LINE
  8
0
 10
212.119
 20
1.21027
 11
212.024
 21
1.16179
  0
LINE
  8
0
 10
212.024
 20
1.16179
 11
211.926
 21
1.11937
  0
LINE
  8
0
 10
211.926
 20
1.11937
 11
211.825
 21
1.08319
  0
LINE
  8
0
 10
211.825
 20
1.08319
 11
211.723
 21
1.05341
  0
LINE
  8
0
 10
211.723
 20
1.05341
 11
211.619
 21
1.03011
  0
LINE
  8
0
 10
211.619
 20
1.03011
 11
211.513
 21
1.0134
  0
LINE
  8
0
 10
211.513
 20
1.0134
 11
211.407
 21
1.00334
  0
LINE
  8
0
 10
211.407
 20
1.00334
 11
211.3
 21
1
  0
ENDSEC
  0
SECTION
  2
OBJECTS
  0
DICTIONARY
  0
ENDSEC
  0
EOF
